<svg xmlns="http://www.w3.org/2000/svg" width="800" height="420" viewBox="0 0 800 420">
<rect width="800" height="420" fill="white"/>
<text x="400" y="28" text-anchor="middle" font-family="sans-serif" font-size="20">25-Gbaud PAM4 eye</text>
<line x1="50" y1="360" x2="750" y2="360" stroke="black"/>
<line x1="50" y1="60" x2="50" y2="360" stroke="black"/>
<polyline points="50.00,334.89 50.61,334.78 51.84,334.57 54.29,334.15 59.19,333.35 67.94,332.06 76.69,330.89 85.44,329.70 94.19,328.19 102.94,325.96 111.69,322.51 120.44,317.34 129.19,310.03 137.94,300.29 146.69,288.07 155.44,273.48 164.19,256.87 172.94,238.69 181.69,219.50 190.44,199.88 199.19,180.39 207.94,161.55 216.69,143.81 225.44,127.53 234.19,112.99 242.94,100.37 251.69,89.77 260.44,81.15 269.19,74.43 277.94,69.43 286.69,65.96 295.44,63.82 304.19,62.79 312.94,62.68 321.69,63.32 330.44,64.55 339.19,66.23 347.94,68.22 356.69,70.41 365.44,72.69 374.19,74.99 382.94,77.24 391.25,79.26 392.12,79.47 393.88,79.88 396.94,80.58 400.00,81.26 400.61,81.39 401.84,81.65 404.29,82.16 409.19,83.14 417.94,84.73 426.69,86.13 435.44,87.47 444.19,88.99 452.94,91.03 461.69,94.06 470.44,98.54 479.19,104.92 487.94,113.56 496.69,124.62 505.44,138.08 514.19,153.71 522.94,171.13 531.69,189.84 540.44,209.28 549.19,228.90 557.94,248.18 566.69,266.67 575.44,283.96 584.19,299.76 592.94,313.81 601.69,325.96 610.44,336.15 619.19,344.36 627.94,350.67 636.69,355.21 645.44,358.14 654.19,359.67 662.94,360.00 671.69,359.35 680.44,357.91 689.19,355.89 697.94,353.46 706.69,350.77 715.44,347.96 724.19,345.13 732.94,342.37 741.25,339.89 742.13,339.64 743.88,339.14 746.94,338.28" fill="none" stroke="#2463a2" stroke-opacity="0.16" stroke-width="1"/><polyline points="50.00,81.26 50.61,81.39 51.84,81.65 54.29,82.16 59.19,83.14 67.94,84.73 76.69,86.13 85.44,87.47 94.19,88.99 102.94,91.03 111.69,94.06 120.44,98.54 129.19,104.92 137.94,113.56 146.69,124.62 155.44,138.08 164.19,153.71 172.94,171.13 181.69,189.84 190.44,209.28 199.19,228.90 207.94,248.18 216.69,266.67 225.44,283.96 234.19,299.76 242.94,313.81 251.69,325.96 260.44,336.15 269.19,344.36 277.94,350.67 286.69,355.21 295.44,358.14 304.19,359.67 312.94,360.00 321.69,359.35 330.44,357.91 339.19,355.89 347.94,353.46 356.69,350.77 365.44,347.96 374.19,345.13 382.94,342.37 391.25,339.89 392.12,339.64 393.88,339.14 396.94,338.28 400.00,337.45 400.61,337.29 401.84,336.97 404.29,336.34 409.19,335.15 417.94,333.21 426.69,331.51 435.44,329.99 444.19,328.57 452.94,327.09 461.69,325.37 470.44,323.24 479.19,320.53 487.94,317.14 496.69,313.00 505.44,308.13 514.19,302.60 522.94,296.53 531.69,290.09 540.44,283.45 549.19,276.80 557.94,270.31 566.69,264.14 575.44,258.43 584.19,253.26 592.94,248.73 601.69,244.86 610.44,241.68 619.19,239.16 627.94,237.27 636.69,235.97 645.44,235.18 654.19,234.86 662.94,234.91 671.69,235.28 680.44,235.89 689.19,236.68 697.94,237.59 706.69,238.57 715.44,239.58 724.19,240.58 732.94,241.54 741.25,242.40 742.13,242.49 743.87,242.66 746.94,242.95 750.00,243.24" fill="none" stroke="#2463a2" stroke-opacity="0.16" stroke-width="1"/><polyline points="50.00,337.45 50.61,337.29 51.84,336.97 54.29,336.34 59.19,335.15 67.94,333.21 76.69,331.51 85.44,329.99 94.19,328.57 102.94,327.09 111.69,325.37 120.44,323.24 129.19,320.53 137.94,317.14 146.69,313.00 155.44,308.13 164.19,302.60 172.94,296.53 181.69,290.09 190.44,283.45 199.19,276.80 207.94,270.31 216.69,264.14 225.44,258.43 234.19,253.26 242.94,248.73 251.69,244.86 260.44,241.68 269.19,239.16 277.94,237.27 286.69,235.97 295.44,235.18 304.19,234.86 312.94,234.91 321.69,235.28 330.44,235.89 339.19,236.68 347.94,237.59 356.69,238.57 365.44,239.58 374.19,240.58 382.94,241.54 391.25,242.40 392.13,242.49 393.88,242.66 396.94,242.95 400.00,243.24 400.61,243.29 401.84,243.40 404.29,243.61 409.19,244.02 417.94,244.68 426.69,245.22 435.44,245.61 444.19,245.74 452.94,245.49 461.69,244.70 470.44,243.22 479.19,240.91 487.94,237.71 496.69,233.60 505.44,228.63 514.19,222.92 522.94,216.61 531.69,209.90 540.44,202.99 549.19,196.07 557.94,189.35 566.69,182.96 575.44,177.06 584.19,171.75 592.94,167.08 601.69,163.09 610.44,159.80 619.19,157.18 627.94,155.19 636.69,153.80 645.44,152.92 654.19,152.50 662.94,152.46 671.69,152.73 680.44,153.26 689.19,153.96 697.94,154.80 706.69,155.71 715.44,156.65 724.19,157.59 732.94,158.50 741.25,159.32 742.13,159.41 743.88,159.57 746.94,159.85" fill="none" stroke="#2463a2" stroke-opacity="0.16" stroke-width="1"/><polyline points="50.00,243.24 50.61,243.29 51.84,243.40 54.29,243.61 59.19,244.02 67.94,244.68 76.69,245.22 85.44,245.61 94.19,245.74 102.94,245.49 111.69,244.70 120.44,243.22 129.19,240.91 137.94,237.71 146.69,233.60 155.44,228.63 164.19,222.92 172.94,216.61 181.69,209.90 190.44,202.99 199.19,196.07 207.94,189.35 216.69,182.96 225.44,177.06 234.19,171.75 242.94,167.08 251.69,163.09 260.44,159.80 269.19,157.18 277.94,155.19 286.69,153.80 295.44,152.92 304.19,152.50 312.94,152.46 321.69,152.73 330.44,153.26 339.19,153.96 347.94,154.80 356.69,155.71 365.44,156.65 374.19,157.59 382.94,158.50 391.25,159.32 392.12,159.41 393.88,159.57 396.94,159.85 400.00,160.12 400.61,160.17 401.84,160.28 404.29,160.48 409.19,160.87 417.94,161.49 426.69,162.01 435.44,162.38 444.19,162.51 452.94,162.27 461.69,161.53 470.44,160.12 479.19,157.94 487.94,154.92 496.69,151.06 505.44,146.40 514.19,141.08 522.94,135.24 531.69,129.07 540.44,122.77 549.19,116.52 557.94,110.51 566.69,104.86 575.44,99.70 584.19,95.10 592.94,91.11 601.69,87.74 610.44,84.98 619.19,82.81 627.94,81.19 636.69,80.06 645.44,79.37 654.19,79.05 662.94,79.05 671.69,79.30 680.44,79.75 689.19,80.35 697.94,81.05 706.69,81.81 715.44,82.59 724.19,83.38 732.94,84.14 741.25,84.82 742.13,84.88 743.88,85.02 746.94,85.25" fill="none" stroke="#2463a2" stroke-opacity="0.16" stroke-width="1"/><polyline points="50.00,160.12 50.61,160.17 51.84,160.28 54.29,160.48 59.19,160.87 67.94,161.49 76.69,162.01 85.44,162.38 94.19,162.51 102.94,162.27 111.69,161.53 120.44,160.12 129.19,157.94 137.94,154.92 146.69,151.06 155.44,146.40 164.19,141.08 172.94,135.24 181.69,129.07 190.44,122.77 199.19,116.52 207.94,110.51 216.69,104.86 225.44,99.70 234.19,95.10 242.94,91.11 251.69,87.74 260.44,84.98 269.19,82.81 277.94,81.19 286.69,80.06 295.44,79.37 304.19,79.05 312.94,79.05 321.69,79.30 330.44,79.75 339.19,80.35 347.94,81.05 356.69,81.81 365.44,82.59 374.19,83.38 382.94,84.14 391.25,84.82 392.12,84.88 393.88,85.02 396.94,85.25 400.00,85.48 400.61,85.52 401.84,85.61 404.29,85.78 409.19,86.11 417.94,86.63 426.69,87.10 435.44,87.60 444.19,88.28 452.94,89.37 461.69,91.16 470.44,93.93 479.19,97.98 487.94,103.52 496.69,110.65 505.44,119.38 514.19,129.58 522.94,141.02 531.69,153.38 540.44,166.31 549.19,179.42 557.94,192.36 566.69,204.80 575.44,216.45 584.19,227.08 592.94,236.52 601.69,244.67 610.44,251.47 619.19,256.94 627.94,261.11 636.69,264.09 645.44,265.97 654.19,266.90 662.94,267.02 671.69,266.48 680.44,265.42 689.19,263.97 697.94,262.25 706.69,260.37 715.44,258.41 724.19,256.46 732.94,254.56 741.25,252.86 742.13,252.69 743.87,252.35 746.94,251.77 750.00,251.20" fill="none" stroke="#2463a2" stroke-opacity="0.16" stroke-width="1"/><polyline points="50.00,85.48 50.61,85.52 51.84,85.61 54.29,85.78 59.19,86.11 67.94,86.63 76.69,87.10 85.44,87.60 94.19,88.28 102.94,89.37 111.69,91.16 120.44,93.93 129.19,97.98 137.94,103.52 146.69,110.65 155.44,119.38 164.19,129.58 172.94,141.02 181.69,153.38 190.44,166.31 199.19,179.42 207.94,192.36 216.69,204.80 225.44,216.45 234.19,227.08 242.94,236.52 251.69,244.67 260.44,251.47 269.19,256.94 277.94,261.11 286.69,264.09 295.44,265.97 304.19,266.90 312.94,267.02 321.69,266.48 330.44,265.42 339.19,263.97 347.94,262.25 356.69,260.37 365.44,258.41 374.19,256.46 382.94,254.56 391.25,252.86 392.13,252.69 393.88,252.35 396.94,251.77 400.00,251.20 400.61,251.09 401.84,250.87 404.29,250.45 409.19,249.64 417.94,248.32 426.69,247.18 435.44,246.22 444.19,245.42 452.94,244.78 461.69,244.28 470.44,243.91 479.19,243.64 487.94,243.48 496.69,243.39 505.44,243.37 514.19,243.40 522.94,243.48 531.69,243.58 540.44,243.71 549.19,243.85 557.94,244.00 566.69,244.15 575.44,244.30 584.19,244.45 592.94,244.58 601.69,244.71 610.44,244.82 619.19,244.92 627.94,245.01 636.69,245.10 645.44,245.17 654.19,245.23 662.94,245.28 671.69,245.32 680.44,245.36 689.19,245.38 697.94,245.41 706.69,245.43 715.44,245.44 724.19,245.45 732.94,245.46 741.25,245.47 742.13,245.47 743.88,245.47 746.94,245.47" fill="none" stroke="#2463a2" stroke-opacity="0.16" stroke-width="1"/><polyline points="50.00,251.20 50.61,251.09 51.84,250.87 54.29,250.45 59.19,249.64 67.94,248.32 76.69,247.18 85.44,246.22 94.19,245.42 102.94,244.78 111.69,244.28 120.44,243.91 129.19,243.64 137.94,243.48 146.69,243.39 155.44,243.37 164.19,243.40 172.94,243.48 181.69,243.58 190.44,243.71 199.19,243.85 207.94,244.00 216.69,244.15 225.44,244.30 234.19,244.45 242.94,244.58 251.69,244.71 260.44,244.82 269.19,244.92 277.94,245.01 286.69,245.10 295.44,245.17 304.19,245.23 312.94,245.28 321.69,245.32 330.44,245.36 339.19,245.38 347.94,245.41 356.69,245.43 365.44,245.44 374.19,245.45 382.94,245.46 391.25,245.47 392.12,245.47 393.88,245.47 396.94,245.47 400.00,245.47 400.61,245.47 401.84,245.47 404.29,245.47 409.19,245.47 417.94,245.47 426.69,245.47 435.44,245.47 444.19,245.47 452.94,245.48 461.69,245.48 470.44,245.48 479.19,245.49 487.94,245.49 496.69,245.49 505.44,245.50 514.19,245.50 522.94,245.50 531.69,245.51 540.44,245.51 549.19,245.51 557.94,245.51 566.69,245.51 575.44,245.52 584.19,245.52 592.94,245.52 601.69,245.52 610.44,245.53 619.19,245.53 627.94,245.53 636.69,245.53 645.44,245.53 654.19,245.54 662.94,245.54 671.69,245.54 680.44,245.54 689.19,245.54 697.94,245.54 706.69,245.54 715.44,245.55 724.19,245.55 732.94,245.55 741.25,245.55 742.13,245.55 743.88,245.55 746.94,245.55" fill="none" stroke="#2463a2" stroke-opacity="0.16" stroke-width="1"/><polyline points="50.00,245.47 50.61,245.47 51.84,245.47 54.29,245.47 59.19,245.47 67.94,245.47 76.69,245.47 85.44,245.47 94.19,245.47 102.94,245.48 111.69,245.48 120.44,245.48 129.19,245.49 137.94,245.49 146.69,245.49 155.44,245.50 164.19,245.50 172.94,245.50 181.69,245.51 190.44,245.51 199.19,245.51 207.94,245.51 216.69,245.51 225.44,245.52 234.19,245.52 242.94,245.52 251.69,245.52 260.44,245.53 269.19,245.53 277.94,245.53 286.69,245.53 295.44,245.53 304.19,245.54 312.94,245.54 321.69,245.54 330.44,245.54 339.19,245.54 347.94,245.54 356.69,245.54 365.44,245.55 374.19,245.55 382.94,245.55 391.25,245.55 392.12,245.55 393.88,245.55 396.94,245.55 400.00,245.55 400.61,245.55 401.84,245.55 404.29,245.56 409.19,245.56 417.94,245.56 426.69,245.58 435.44,245.67 444.19,245.93 452.94,246.50 461.69,247.53 470.44,249.20 479.19,251.64 487.94,254.93 496.69,259.08 505.44,264.07 514.19,269.78 522.94,276.06 531.69,282.73 540.44,289.60 549.19,296.46 557.94,303.14 566.69,309.48 575.44,315.33 584.19,320.61 592.94,325.23 601.69,329.18 610.44,332.44 619.19,335.03 627.94,336.98 636.69,338.35 645.44,339.19 654.19,339.59 662.94,339.61 671.69,339.31 680.44,338.77 689.19,338.06 697.94,337.22 706.69,336.30 715.44,335.35 724.19,334.41 732.94,333.50 741.25,332.68 742.13,332.59 743.87,332.43 746.94,332.15 750.00,331.88" fill="none" stroke="#2463a2" stroke-opacity="0.16" stroke-width="1"/><polyline points="50.00,245.55 50.61,245.55 51.84,245.55 54.29,245.56 59.19,245.56 67.94,245.56 76.69,245.58 85.44,245.67 94.19,245.93 102.94,246.50 111.69,247.53 120.44,249.20 129.19,251.64 137.94,254.93 146.69,259.08 155.44,264.07 164.19,269.78 172.94,276.06 181.69,282.73 190.44,289.60 199.19,296.46 207.94,303.14 216.69,309.48 225.44,315.33 234.19,320.61 242.94,325.23 251.69,329.18 260.44,332.44 269.19,335.03 277.94,336.98 286.69,338.35 295.44,339.19 304.19,339.59 312.94,339.61 321.69,339.31 330.44,338.77 339.19,338.06 347.94,337.22 356.69,336.30 365.44,335.35 374.19,334.41 382.94,333.50 391.25,332.68 392.13,332.59 393.88,332.43 396.94,332.15 400.00,331.88 400.61,331.82 401.84,331.72 404.29,331.52 409.19,331.13 417.94,330.50 426.69,329.94 435.44,329.40 444.19,328.79 452.94,327.95 461.69,326.73 470.44,324.96 479.19,322.50 487.94,319.24 496.69,315.16 505.44,310.29 514.19,304.70 522.94,298.53 531.69,291.96 540.44,285.17 549.19,278.36 557.94,271.70 566.69,265.35 575.44,259.47 584.19,254.14 592.94,249.45 601.69,245.44 610.44,242.11 619.19,239.47 627.94,237.47 636.69,236.07 645.44,235.20 654.19,234.80 662.94,234.80 671.69,235.12 680.44,235.69 689.19,236.45 697.94,237.34 706.69,238.31 715.44,239.31 724.19,240.30 732.94,241.27 741.25,242.13 742.13,242.22 743.88,242.39 746.94,242.69" fill="none" stroke="#2463a2" stroke-opacity="0.16" stroke-width="1"/><polyline points="50.00,331.88 50.61,331.82 51.84,331.72 54.29,331.52 59.19,331.13 67.94,330.50 76.69,329.94 85.44,329.40 94.19,328.79 102.94,327.95 111.69,326.73 120.44,324.96 129.19,322.50 137.94,319.24 146.69,315.16 155.44,310.29 164.19,304.70 172.94,298.53 181.69,291.96 190.44,285.17 199.19,278.36 207.94,271.70 216.69,265.35 225.44,259.47 234.19,254.14 242.94,249.45 251.69,245.44 260.44,242.11 269.19,239.47 277.94,237.47 286.69,236.07 295.44,235.20 304.19,234.80 312.94,234.80 321.69,235.12 330.44,235.69 339.19,236.45 347.94,237.34 356.69,238.31 365.44,239.31 374.19,240.30 382.94,241.27 391.25,242.13 392.12,242.22 393.88,242.39 396.94,242.69 400.00,242.97 400.61,243.03 401.84,243.14 404.29,243.36 409.19,243.77 417.94,244.43 426.69,244.96 435.44,245.27 444.19,245.15 452.94,244.34 461.69,242.52 470.44,239.37 479.19,234.64 487.94,228.20 496.69,220.00 505.44,210.19 514.19,198.99 522.94,186.74 531.69,173.83 540.44,160.65 549.19,147.60 557.94,135.05 566.69,123.28 575.44,112.54 584.19,103.01 592.94,94.76 601.69,87.84 610.44,82.22 619.19,77.82 627.94,74.54 636.69,72.26 645.44,70.85 654.19,70.19 662.94,70.16 671.69,70.63 680.44,71.50 689.19,72.67 697.94,74.05 706.69,75.56 715.44,77.12 724.19,78.69 732.94,80.21 741.25,81.57 742.13,81.71 743.88,81.99 746.94,82.46" fill="none" stroke="#2463a2" stroke-opacity="0.16" stroke-width="1"/><polyline points="50.00,242.97 50.61,243.03 51.84,243.14 54.29,243.36 59.19,243.77 67.94,244.43 76.69,244.96 85.44,245.27 94.19,245.15 102.94,244.34 111.69,242.52 120.44,239.37 129.19,234.64 137.94,228.20 146.69,220.00 155.44,210.19 164.19,198.99 172.94,186.74 181.69,173.83 190.44,160.65 199.19,147.60 207.94,135.05 216.69,123.28 225.44,112.54 234.19,103.01 242.94,94.76 251.69,87.84 260.44,82.22 269.19,77.82 277.94,74.54 286.69,72.26 295.44,70.85 304.19,70.19 312.94,70.16 321.69,70.63 330.44,71.50 339.19,72.67 347.94,74.05 356.69,75.56 365.44,77.12 374.19,78.69 382.94,80.21 391.25,81.57 392.12,81.71 393.88,81.99 396.94,82.46 400.00,82.91 400.61,83.00 401.84,83.18 404.29,83.52 409.19,84.17 417.94,85.23 426.69,86.15 435.44,86.97 444.19,87.79 452.94,88.72 461.69,89.90 470.44,91.49 479.19,93.63 487.94,96.42 496.69,99.93 505.44,104.14 514.19,109.00 522.94,114.43 531.69,120.26 540.44,126.35 549.19,132.52 557.94,138.59 566.69,144.41 575.44,149.85 584.19,154.79 592.94,159.17 601.69,162.92 610.44,166.03 619.19,168.50 627.94,170.37 636.69,171.67 645.44,172.46 654.19,172.81 662.94,172.78 671.69,172.45 680.44,171.88 689.19,171.13 697.94,170.26 706.69,169.32 715.44,168.35 724.19,167.39 732.94,166.46 741.25,165.63 742.13,165.54 743.87,165.38 746.94,165.10 750.00,164.82" fill="none" stroke="#2463a2" stroke-opacity="0.16" stroke-width="1"/><polyline points="50.00,82.91 50.61,83.00 51.84,83.18 54.29,83.52 59.19,84.17 67.94,85.23 76.69,86.15 85.44,86.97 94.19,87.79 102.94,88.72 111.69,89.90 120.44,91.49 129.19,93.63 137.94,96.42 146.69,99.93 155.44,104.14 164.19,109.00 172.94,114.43 181.69,120.26 190.44,126.35 199.19,132.52 207.94,138.59 216.69,144.41 225.44,149.85 234.19,154.79 242.94,159.17 251.69,162.92 260.44,166.03 269.19,168.50 277.94,170.37 286.69,171.67 295.44,172.46 304.19,172.81 312.94,172.78 321.69,172.45 330.44,171.88 339.19,171.13 347.94,170.26 356.69,169.32 365.44,168.35 374.19,167.39 382.94,166.46 391.25,165.63 392.13,165.54 393.88,165.38 396.94,165.10 400.00,164.82 400.61,164.77 401.84,164.66 404.29,164.46 409.19,164.06 417.94,163.43 426.69,162.86 435.44,162.31 444.19,161.69 452.94,160.86 461.69,159.65 470.44,157.91 479.19,155.51 487.94,152.35 496.69,148.44 505.44,143.80 514.19,138.54 522.94,132.81 531.69,126.77 540.44,120.62 549.19,114.54 557.94,108.69 566.69,103.21 575.44,98.21 584.19,93.75 592.94,89.90 601.69,86.65 610.44,84.00 619.19,81.92 627.94,80.38 636.69,79.32 645.44,78.69 654.19,78.42 662.94,78.45 671.69,78.74 680.44,79.21 689.19,79.83 697.94,80.54 706.69,81.31 715.44,82.11 724.19,82.90 732.94,83.66 741.25,84.34 742.13,84.41 743.88,84.54 746.94,84.78" fill="none" stroke="#2463a2" stroke-opacity="0.16" stroke-width="1"/><polyline points="50.00,164.82 50.61,164.77 51.84,164.66 54.29,164.46 59.19,164.06 67.94,163.43 76.69,162.86 85.44,162.31 94.19,161.69 102.94,160.86 111.69,159.65 120.44,157.91 129.19,155.51 137.94,152.35 146.69,148.44 155.44,143.80 164.19,138.54 172.94,132.81 181.69,126.77 190.44,120.62 199.19,114.54 207.94,108.69 216.69,103.21 225.44,98.21 234.19,93.75 242.94,89.90 251.69,86.65 260.44,84.00 269.19,81.92 277.94,80.38 286.69,79.32 295.44,78.69 304.19,78.42 312.94,78.45 321.69,78.74 330.44,79.21 339.19,79.83 347.94,80.54 356.69,81.31 365.44,82.11 374.19,82.90 382.94,83.66 391.25,84.34 392.12,84.41 393.88,84.54 396.94,84.78 400.00,85.00 400.61,85.05 401.84,85.13 404.29,85.30 409.19,85.63 417.94,86.15 426.69,86.63 435.44,87.18 444.19,88.05 452.94,89.56 461.69,92.15 470.44,96.29 479.19,102.42 487.94,110.86 496.69,121.79 505.44,135.18 514.19,150.79 522.94,168.24 531.69,187.01 540.44,206.53 549.19,226.26 557.94,245.67 566.69,264.28 575.44,281.71 584.19,297.64 592.94,311.82 601.69,324.09 610.44,334.38 619.19,342.68 627.94,349.07 636.69,353.67 645.44,356.66 654.19,358.24 662.94,358.63 671.69,358.04 680.44,356.68 689.19,354.73 697.94,352.38 706.69,349.77 715.44,347.03 724.19,344.26 732.94,341.56 741.25,339.12 742.13,338.87 743.88,338.37 746.94,337.53" fill="none" stroke="#2463a2" stroke-opacity="0.16" stroke-width="1"/><polyline points="50.00,85.00 50.61,85.05 51.84,85.13 54.29,85.30 59.19,85.63 67.94,86.15 76.69,86.63 85.44,87.18 94.19,88.05 102.94,89.56 111.69,92.15 120.44,96.29 129.19,102.42 137.94,110.86 146.69,121.79 155.44,135.18 164.19,150.79 172.94,168.24 181.69,187.01 190.44,206.53 199.19,226.26 207.94,245.67 216.69,264.28 225.44,281.71 234.19,297.64 242.94,311.82 251.69,324.09 260.44,334.38 269.19,342.68 277.94,349.07 286.69,353.67 295.44,356.66 304.19,358.24 312.94,358.63 321.69,358.04 330.44,356.68 339.19,354.73 347.94,352.38 356.69,349.77 365.44,347.03 374.19,344.26 382.94,341.56 391.25,339.12 392.12,338.87 393.88,338.37 396.94,337.53 400.00,336.71 400.61,336.55 401.84,336.23 404.29,335.61 409.19,334.42 417.94,332.49 426.69,330.81 435.44,329.38 444.19,328.19 452.94,327.22 461.69,326.47 470.44,325.91 479.19,325.52 487.94,325.27 496.69,325.14 505.44,325.10 514.19,325.15 522.94,325.26 531.69,325.42 540.44,325.62 549.19,325.83 557.94,326.07 566.69,326.31 575.44,326.54 584.19,326.77 592.94,326.98 601.69,327.18 610.44,327.36 619.19,327.52 627.94,327.67 636.69,327.80 645.44,327.92 654.19,328.02 662.94,328.11 671.69,328.19 680.44,328.26 689.19,328.31 697.94,328.36 706.69,328.40 715.44,328.43 724.19,328.46 732.94,328.47 741.25,328.49 742.13,328.49 743.87,328.49 746.94,328.50 750.00,328.50" fill="none" stroke="#2463a2" stroke-opacity="0.16" stroke-width="1"/><polyline points="50.00,336.71 50.61,336.55 51.84,336.23 54.29,335.61 59.19,334.42 67.94,332.49 76.69,330.81 85.44,329.38 94.19,328.19 102.94,327.22 111.69,326.47 120.44,325.91 129.19,325.52 137.94,325.27 146.69,325.14 155.44,325.10 164.19,325.15 172.94,325.26 181.69,325.42 190.44,325.62 199.19,325.83 207.94,326.07 216.69,326.31 225.44,326.54 234.19,326.77 242.94,326.98 251.69,327.18 260.44,327.36 269.19,327.52 277.94,327.67 286.69,327.80 295.44,327.92 304.19,328.02 312.94,328.11 321.69,328.19 330.44,328.26 339.19,328.31 347.94,328.36 356.69,328.40 365.44,328.43 374.19,328.46 382.94,328.47 391.25,328.49 392.13,328.49 393.88,328.49 396.94,328.50 400.00,328.50 400.61,328.50 401.84,328.50 404.29,328.50 409.19,328.51 417.94,328.51 426.69,328.46 435.44,328.21 444.19,327.49 452.94,325.88 461.69,322.90 470.44,318.08 479.19,311.02 487.94,301.44 496.69,289.31 505.44,274.76 514.19,258.13 522.94,239.92 531.69,220.67 540.44,200.98 549.19,181.42 557.94,162.50 566.69,144.68 575.44,128.32 584.19,113.71 592.94,101.04 601.69,90.37 610.44,81.70 619.19,74.92 627.94,69.85 636.69,66.30 645.44,64.06 654.19,62.93 662.94,62.72 671.69,63.27 680.44,64.40 689.19,65.99 697.94,67.90 706.69,70.02 715.44,72.25 724.19,74.50 732.94,76.70 741.25,78.69 742.13,78.89 743.88,79.30 746.94,79.98" fill="none" stroke="#2463a2" stroke-opacity="0.16" stroke-width="1"/><polyline points="50.00,328.50 50.61,328.50 51.84,328.50 54.29,328.50 59.19,328.51 67.94,328.51 76.69,328.46 85.44,328.21 94.19,327.49 102.94,325.88 111.69,322.90 120.44,318.08 129.19,311.02 137.94,301.44 146.69,289.31 155.44,274.76 164.19,258.13 172.94,239.92 181.69,220.67 190.44,200.98 199.19,181.42 207.94,162.50 216.69,144.68 225.44,128.32 234.19,113.71 242.94,101.04 251.69,90.37 260.44,81.70 269.19,74.92 277.94,69.85 286.69,66.30 295.44,64.06 304.19,62.93 312.94,62.72 321.69,63.27 330.44,64.40 339.19,65.99 347.94,67.90 356.69,70.02 365.44,72.25 374.19,74.50 382.94,76.70 391.25,78.69 392.12,78.89 393.88,79.30 396.94,79.98 400.00,80.65 400.61,80.78 401.84,81.04 404.29,81.55 409.19,82.51 417.94,84.08 426.69,85.47 435.44,86.76 444.19,88.10 452.94,89.73 461.69,91.95 470.44,95.05 479.19,99.34 487.94,105.04 496.69,112.26 505.44,121.03 514.19,131.21 522.94,142.59 531.69,154.86 540.44,167.67 549.19,180.66 557.94,193.45 566.69,205.74 575.44,217.23 584.19,227.71 592.94,237.01 601.69,245.02 610.44,251.69 619.19,257.04 627.94,261.11 636.69,264.00 645.44,265.80 654.19,266.67 662.94,266.74 671.69,266.15 680.44,265.06 689.19,263.58 697.94,261.84 706.69,259.94 715.44,257.97 724.19,256.00 732.94,254.09 741.25,252.38 742.13,252.21 743.88,251.86 746.94,251.28" fill="none" stroke="#2463a2" stroke-opacity="0.16" stroke-width="1"/><polyline points="50.00,80.65 50.61,80.78 51.84,81.04 54.29,81.55 59.19,82.51 67.94,84.08 76.69,85.47 85.44,86.76 94.19,88.10 102.94,89.73 111.69,91.95 120.44,95.05 129.19,99.34 137.94,105.04 146.69,112.26 155.44,121.03 164.19,131.21 172.94,142.59 181.69,154.86 190.44,167.67 199.19,180.66 207.94,193.45 216.69,205.74 225.44,217.23 234.19,227.71 242.94,237.01 251.69,245.02 260.44,251.69 269.19,257.04 277.94,261.11 286.69,264.00 295.44,265.80 304.19,266.67 312.94,266.74 321.69,266.15 330.44,265.06 339.19,263.58 347.94,261.84 356.69,259.94 365.44,257.97 374.19,256.00 382.94,254.09 391.25,252.38 392.12,252.21 393.88,251.86 396.94,251.28 400.00,250.71 400.61,250.60 401.84,250.38 404.29,249.95 409.19,249.13 417.94,247.81 426.69,246.68 435.44,245.80 444.19,245.26 452.94,245.18 461.69,245.71 470.44,247.00 479.19,249.17 487.94,252.28 496.69,256.35 505.44,261.30 514.19,267.04 522.94,273.39 531.69,280.15 540.44,287.14 549.19,294.13 557.94,300.95 566.69,307.42 575.44,313.41 584.19,318.81 592.94,323.56 601.69,327.62 610.44,330.98 619.19,333.66 627.94,335.69 636.69,337.12 645.44,338.03 654.19,338.46 662.94,338.51 671.69,338.24 680.44,337.71 689.19,337.01 697.94,336.17 706.69,335.27 715.44,334.34 724.19,333.41 732.94,332.53 741.25,331.73 742.13,331.65 743.87,331.50 746.94,331.22 750.00,330.96" fill="none" stroke="#2463a2" stroke-opacity="0.16" stroke-width="1"/><polyline points="50.00,250.71 50.61,250.60 51.84,250.38 54.29,249.95 59.19,249.13 67.94,247.81 76.69,246.68 85.44,245.80 94.19,245.26 102.94,245.18 111.69,245.71 120.44,247.00 129.19,249.17 137.94,252.28 146.69,256.35 155.44,261.30 164.19,267.04 172.94,273.39 181.69,280.15 190.44,287.14 199.19,294.13 207.94,300.95 216.69,307.42 225.44,313.41 234.19,318.81 242.94,323.56 251.69,327.62 260.44,330.98 269.19,333.66 277.94,335.69 286.69,337.12 295.44,338.03 304.19,338.46 312.94,338.51 321.69,338.24 330.44,337.71 339.19,337.01 347.94,336.17 356.69,335.27 365.44,334.34 374.19,333.41 382.94,332.53 391.25,331.73 392.13,331.65 393.88,331.50 396.94,331.22 400.00,330.96 400.61,330.91 401.84,330.81 404.29,330.62 409.19,330.24 417.94,329.64 426.69,329.12 435.44,328.69 444.19,328.33 452.94,328.04 461.69,327.82 470.44,327.65 479.19,327.54 487.94,327.47 496.69,327.44 505.44,327.44 514.19,327.47 522.94,327.52 531.69,327.58 540.44,327.65 549.19,327.73 557.94,327.81 566.69,327.89 575.44,327.97 584.19,328.05 592.94,328.12 601.69,328.19 610.44,328.25 619.19,328.31 627.94,328.36 636.69,328.40 645.44,328.45 654.19,328.48 662.94,328.51 671.69,328.54 680.44,328.57 689.19,328.59 697.94,328.61 706.69,328.62 715.44,328.64 724.19,328.65 732.94,328.66 741.25,328.67 742.13,328.67 743.88,328.68 746.94,328.68" fill="none" stroke="#2463a2" stroke-opacity="0.16" stroke-width="1"/><polyline points="50.00,330.96 50.61,330.91 51.84,330.81 54.29,330.62 59.19,330.24 67.94,329.64 76.69,329.12 85.44,328.69 94.19,328.33 102.94,328.04 111.69,327.82 120.44,327.65 129.19,327.54 137.94,327.47 146.69,327.44 155.44,327.44 164.19,327.47 172.94,327.52 181.69,327.58 190.44,327.65 199.19,327.73 207.94,327.81 216.69,327.89 225.44,327.97 234.19,328.05 242.94,328.12 251.69,328.19 260.44,328.25 269.19,328.31 277.94,328.36 286.69,328.40 295.44,328.45 304.19,328.48 312.94,328.51 321.69,328.54 330.44,328.57 339.19,328.59 347.94,328.61 356.69,328.62 365.44,328.64 374.19,328.65 382.94,328.66 391.25,328.67 392.12,328.67 393.88,328.68 396.94,328.68 400.00,328.68 400.61,328.68 401.84,328.68 404.29,328.69 409.19,328.69 417.94,328.70 426.69,328.67 435.44,328.51 444.19,328.02 452.94,326.96 461.69,324.98 470.44,321.78 479.19,317.07 487.94,310.69 496.69,302.58 505.44,292.81 514.19,281.59 522.94,269.20 531.69,256.01 540.44,242.40 549.19,228.76 557.94,215.46 566.69,202.81 575.44,191.08 584.19,180.47 592.94,171.12 601.69,163.12 610.44,156.49 619.19,151.20 627.94,147.18 636.69,144.35 645.44,142.56 654.19,141.68 662.94,141.58 671.69,142.11 680.44,143.13 689.19,144.52 697.94,146.17 706.69,147.96 715.44,149.83 724.19,151.70 732.94,153.51 741.25,155.13 742.13,155.30 743.88,155.63 746.94,156.18" fill="none" stroke="#2463a2" stroke-opacity="0.16" stroke-width="1"/><polyline points="50.00,328.68 50.61,328.68 51.84,328.68 54.29,328.69 59.19,328.69 67.94,328.70 76.69,328.67 85.44,328.51 94.19,328.02 102.94,326.96 111.69,324.98 120.44,321.78 129.19,317.07 137.94,310.69 146.69,302.58 155.44,292.81 164.19,281.59 172.94,269.20 181.69,256.01 190.44,242.40 199.19,228.76 207.94,215.46 216.69,202.81 225.44,191.08 234.19,180.47 242.94,171.12 251.69,163.12 260.44,156.49 269.19,151.20 277.94,147.18 286.69,144.35 295.44,142.56 304.19,141.68 312.94,141.58 321.69,142.11 330.44,143.13 339.19,144.52 347.94,146.17 356.69,147.96 365.44,149.83 374.19,151.70 382.94,153.51 391.25,155.13 392.12,155.30 393.88,155.63 396.94,156.18 400.00,156.72 400.61,156.83 401.84,157.04 404.29,157.45 409.19,158.22 417.94,159.48 426.69,160.61 435.44,161.71 444.19,162.96 452.94,164.66 461.69,167.12 470.44,170.69 479.19,175.64 487.94,182.16 496.69,190.33 505.44,200.09 514.19,211.26 522.94,223.55 531.69,236.62 540.44,250.11 549.19,263.61 557.94,276.79 566.69,289.32 575.44,300.94 584.19,311.45 592.94,320.71 601.69,328.62 610.44,335.17 619.19,340.39 627.94,344.33 636.69,347.10 645.44,348.82 654.19,349.63 662.94,349.67 671.69,349.09 680.44,348.01 689.19,346.57 697.94,344.87 706.69,343.03 715.44,341.12 724.19,339.21 732.94,337.38 741.25,335.73 742.12,335.56 743.87,335.24 746.94,334.67 750.00,334.13" fill="none" stroke="#2463a2" stroke-opacity="0.16" stroke-width="1"/><polyline points="50.00,156.72 50.61,156.83 51.84,157.04 54.29,157.45 59.19,158.22 67.94,159.48 76.69,160.61 85.44,161.71 94.19,162.96 102.94,164.66 111.69,167.12 120.44,170.69 129.19,175.64 137.94,182.16 146.69,190.33 155.44,200.09 164.19,211.26 172.94,223.55 181.69,236.62 190.44,250.11 199.19,263.61 207.94,276.79 216.69,289.32 225.44,300.94 234.19,311.45 242.94,320.71 251.69,328.62 260.44,335.17 269.19,340.39 277.94,344.33 286.69,347.10 295.44,348.82 304.19,349.63 312.94,349.67 321.69,349.09 330.44,348.01 339.19,346.57 347.94,344.87 356.69,343.03 365.44,341.12 374.19,339.21 382.94,337.38 391.25,335.73 392.12,335.56 393.88,335.24 396.94,334.67 400.00,334.13 400.61,334.02 401.84,333.81 404.29,333.40 409.19,332.62 417.94,331.37 426.69,330.25 435.44,329.18 444.19,327.94 452.94,326.27 461.69,323.82 470.44,320.26 479.19,315.31 487.94,308.78 496.69,300.58 505.44,290.79 514.19,279.59 522.94,267.27 531.69,254.17 540.44,240.68 549.19,227.17 557.94,214.01 566.69,201.50 575.44,189.90 584.19,179.43 592.94,170.21 601.69,162.32 610.44,155.80 619.19,150.61 627.94,146.69 636.69,143.93 645.44,142.21 654.19,141.40 662.94,141.35 671.69,141.92 680.44,142.98 689.19,144.41 697.94,146.08 706.69,147.91 715.44,149.80 724.19,151.69 732.94,153.51 741.25,155.14 742.13,155.30 743.88,155.63 746.94,156.18 750.00,156.72" fill="none" stroke="#2463a2" stroke-opacity="0.16" stroke-width="1"/><polyline points="50.00,334.13 50.61,334.02 51.84,333.81 54.29,333.40 59.19,332.62 67.94,331.37 76.69,330.25 85.44,329.18 94.19,327.94 102.94,326.27 111.69,323.82 120.44,320.26 129.19,315.31 137.94,308.78 146.69,300.58 155.44,290.79 164.19,279.59 172.94,267.27 181.69,254.17 190.44,240.68 199.19,227.17 207.94,214.01 216.69,201.50 225.44,189.90 234.19,179.43 242.94,170.21 251.69,162.32 260.44,155.80 269.19,150.61 277.94,146.69 286.69,143.93 295.44,142.21 304.19,141.40 312.94,141.35 321.69,141.92 330.44,142.98 339.19,144.41 347.94,146.08 356.69,147.91 365.44,149.80 374.19,151.69 382.94,153.51 391.25,155.14 392.13,155.30 393.88,155.63 396.94,156.18 400.00,156.72 400.61,156.83 401.84,157.03 404.29,157.44 409.19,158.21 417.94,159.44 426.69,160.52 435.44,161.51 444.19,162.49 452.94,163.63 461.69,165.08 470.44,167.03 479.19,169.61 487.94,172.94 496.69,177.05 505.44,181.93 514.19,187.49 522.94,193.61 531.69,200.12 540.44,206.84 549.19,213.57 557.94,220.15 566.69,226.41 575.44,232.22 584.19,237.47 592.94,242.08 601.69,246.03 610.44,249.29 619.19,251.87 627.94,253.82 636.69,255.17 645.44,256.00 654.19,256.36 662.94,256.34 671.69,256.00 680.44,255.41 689.19,254.64 697.94,253.74 706.69,252.77 715.44,251.77 724.19,250.77 732.94,249.81 741.25,248.95 742.13,248.86 743.88,248.69 746.94,248.39 750.00,248.11" fill="none" stroke="#2463a2" stroke-opacity="0.16" stroke-width="1"/><polyline points="50.00,156.72 50.61,156.83 51.84,157.03 54.29,157.44 59.19,158.21 67.94,159.44 76.69,160.52 85.44,161.51 94.19,162.49 102.94,163.63 111.69,165.08 120.44,167.03 129.19,169.61 137.94,172.94 146.69,177.05 155.44,181.93 164.19,187.49 172.94,193.61 181.69,200.12 190.44,206.84 199.19,213.57 207.94,220.15 216.69,226.41 225.44,232.22 234.19,237.47 242.94,242.08 251.69,246.03 260.44,249.29 269.19,251.87 277.94,253.82 286.69,255.17 295.44,256.00 304.19,256.36 312.94,256.34 321.69,256.00 330.44,255.41 339.19,254.64 347.94,253.74 356.69,252.77 365.44,251.77 374.19,250.77 382.94,249.81 391.25,248.95 392.12,248.86 393.88,248.69 396.94,248.39 400.00,248.11 400.61,248.05 401.84,247.94 404.29,247.73 409.19,247.32 417.94,246.65 426.69,246.04 435.44,245.38 444.19,244.46 452.94,243.01 461.69,240.70 470.44,237.20 479.19,232.23 487.94,225.64 496.69,217.39 505.44,207.59 514.19,196.45 522.94,184.31 531.69,171.52 540.44,158.50 549.19,145.62 557.94,133.24 566.69,121.65 575.44,111.09 584.19,101.72 592.94,93.64 601.69,86.87 610.44,81.38 619.19,77.10 627.94,73.93 636.69,71.74 645.44,70.41 654.19,69.81 662.94,69.83 671.69,70.33 680.44,71.23 689.19,72.42 697.94,73.80 706.69,75.31 715.44,76.87 724.19,78.43 732.94,79.94 741.25,81.30 742.12,81.43 743.87,81.71 746.94,82.17 750.00,82.62" fill="none" stroke="#2463a2" stroke-opacity="0.16" stroke-width="1"/><polyline points="50.00,248.11 50.61,248.05 51.84,247.94 54.29,247.73 59.19,247.32 67.94,246.65 76.69,246.04 85.44,245.38 94.19,244.46 102.94,243.01 111.69,240.70 120.44,237.20 129.19,232.23 137.94,225.64 146.69,217.39 155.44,207.59 164.19,196.45 172.94,184.31 181.69,171.52 190.44,158.50 199.19,145.62 207.94,133.24 216.69,121.65 225.44,111.09 234.19,101.72 242.94,93.64 251.69,86.87 260.44,81.38 269.19,77.10 277.94,73.93 286.69,71.74 295.44,70.41 304.19,69.81 312.94,69.83 321.69,70.33 330.44,71.23 339.19,72.42 347.94,73.80 356.69,75.31 365.44,76.87 374.19,78.43 382.94,79.94 391.25,81.30 392.12,81.43 393.88,81.71 396.94,82.17 400.00,82.62 400.61,82.71 401.84,82.88 404.29,83.22 409.19,83.87 417.94,84.92 426.69,85.82 435.44,86.58 444.19,87.21 452.94,87.72 461.69,88.11 470.44,88.40 479.19,88.61 487.94,88.73 496.69,88.79 505.44,88.80 514.19,88.76 522.94,88.70 531.69,88.61 540.44,88.50 549.19,88.39 557.94,88.26 566.69,88.14 575.44,88.03 584.19,87.91 592.94,87.81 601.69,87.71 610.44,87.62 619.19,87.55 627.94,87.48 636.69,87.42 645.44,87.36 654.19,87.32 662.94,87.29 671.69,87.26 680.44,87.23 689.19,87.21 697.94,87.20 706.69,87.19 715.44,87.18 724.19,87.17 732.94,87.17 741.25,87.17 742.13,87.17 743.88,87.17 746.94,87.17 750.00,87.17" fill="none" stroke="#2463a2" stroke-opacity="0.16" stroke-width="1"/><polyline points="50.00,82.62 50.61,82.71 51.84,82.88 54.29,83.22 59.19,83.87 67.94,84.92 76.69,85.82 85.44,86.58 94.19,87.21 102.94,87.72 111.69,88.11 120.44,88.40 129.19,88.61 137.94,88.73 146.69,88.79 155.44,88.80 164.19,88.76 172.94,88.70 181.69,88.61 190.44,88.50 199.19,88.39 207.94,88.26 216.69,88.14 225.44,88.03 234.19,87.91 242.94,87.81 251.69,87.71 260.44,87.62 269.19,87.55 277.94,87.48 286.69,87.42 295.44,87.36 304.19,87.32 312.94,87.29 321.69,87.26 330.44,87.23 339.19,87.21 347.94,87.20 356.69,87.19 365.44,87.18 374.19,87.17 382.94,87.17 391.25,87.17 392.13,87.17 393.88,87.17 396.94,87.17 400.00,87.17 400.61,87.17 401.84,87.17 404.29,87.17 409.19,87.17 417.94,87.17 426.69,87.18 435.44,87.24 444.19,87.43 452.94,87.84 461.69,88.62 470.44,89.90 479.19,91.81 487.94,94.44 496.69,97.84 505.44,101.99 514.19,106.84 522.94,112.28 531.69,118.15 540.44,124.31 549.19,130.55 557.94,136.71 566.69,142.63 575.44,148.17 584.19,153.22 592.94,157.69 601.69,161.54 610.44,164.74 619.19,167.29 627.94,169.24 636.69,170.61 645.44,171.46 654.19,171.86 662.94,171.88 671.69,171.59 680.44,171.05 689.19,170.33 697.94,169.48 706.69,168.56 715.44,167.61 724.19,166.66 732.94,165.74 741.25,164.92 742.13,164.84 743.88,164.67 746.94,164.39 750.00,164.12" fill="none" stroke="#2463a2" stroke-opacity="0.16" stroke-width="1"/><polyline points="50.00,87.17 50.61,87.17 51.84,87.17 54.29,87.17 59.19,87.17 67.94,87.17 76.69,87.18 85.44,87.24 94.19,87.43 102.94,87.84 111.69,88.62 120.44,89.90 129.19,91.81 137.94,94.44 146.69,97.84 155.44,101.99 164.19,106.84 172.94,112.28 181.69,118.15 190.44,124.31 199.19,130.55 207.94,136.71 216.69,142.63 225.44,148.17 234.19,153.22 242.94,157.69 251.69,161.54 260.44,164.74 269.19,167.29 277.94,169.24 286.69,170.61 295.44,171.46 304.19,171.86 312.94,171.88 321.69,171.59 330.44,171.05 339.19,170.33 347.94,169.48 356.69,168.56 365.44,167.61 374.19,166.66 382.94,165.74 391.25,164.92 392.12,164.84 393.88,164.67 396.94,164.39 400.00,164.12 400.61,164.06 401.84,163.96 404.29,163.75 409.19,163.36 417.94,162.73 426.69,162.18 435.44,161.72 444.19,161.34 452.94,161.04 461.69,160.80 470.44,160.63 479.19,160.51 487.94,160.43 496.69,160.39 505.44,160.38 514.19,160.39 522.94,160.42 531.69,160.47 540.44,160.52 549.19,160.59 557.94,160.65 566.69,160.72 575.44,160.78 584.19,160.84 592.94,160.90 601.69,160.95 610.44,161.00 619.19,161.04 627.94,161.08 636.69,161.11 645.44,161.13 654.19,161.16 662.94,161.17 671.69,161.19 680.44,161.20 689.19,161.21 697.94,161.21 706.69,161.21 715.44,161.22 724.19,161.22 732.94,161.21 741.25,161.21 742.12,161.21 743.87,161.21 746.94,161.21 750.00,161.21" fill="none" stroke="#2463a2" stroke-opacity="0.16" stroke-width="1"/><polyline points="50.00,164.12 50.61,164.06 51.84,163.96 54.29,163.75 59.19,163.36 67.94,162.73 76.69,162.18 85.44,161.72 94.19,161.34 102.94,161.04 111.69,160.80 120.44,160.63 129.19,160.51 137.94,160.43 146.69,160.39 155.44,160.38 164.19,160.39 172.94,160.42 181.69,160.47 190.44,160.52 199.19,160.59 207.94,160.65 216.69,160.72 225.44,160.78 234.19,160.84 242.94,160.90 251.69,160.95 260.44,161.00 269.19,161.04 277.94,161.08 286.69,161.11 295.44,161.13 304.19,161.16 312.94,161.17 321.69,161.19 330.44,161.20 339.19,161.21 347.94,161.21 356.69,161.21 365.44,161.22 374.19,161.22 382.94,161.21 391.25,161.21 392.12,161.21 393.88,161.21 396.94,161.21 400.00,161.21 400.61,161.21 401.84,161.21 404.29,161.21 409.19,161.21 417.94,161.20 426.69,161.21 435.44,161.29 444.19,161.53 452.94,162.06 461.69,163.04 470.44,164.62 479.19,166.94 487.94,170.09 496.69,174.11 505.44,178.94 514.19,184.51 522.94,190.68 531.69,197.27 540.44,204.08 549.19,210.94 557.94,217.64 566.69,224.03 575.44,229.97 584.19,235.35 592.94,240.09 601.69,244.15 610.44,247.52 619.19,250.21 627.94,252.25 636.69,253.69 645.44,254.59 654.19,255.02 662.94,255.06 671.69,254.77 680.44,254.22 689.19,253.49 697.94,252.63 706.69,251.68 715.44,250.70 724.19,249.72 732.94,248.76 741.25,247.91 742.13,247.82 743.88,247.65 746.94,247.35 750.00,247.07" fill="none" stroke="#2463a2" stroke-opacity="0.16" stroke-width="1"/><polyline points="50.00,161.21 50.61,161.21 51.84,161.21 54.29,161.21 59.19,161.21 67.94,161.20 76.69,161.21 85.44,161.29 94.19,161.53 102.94,162.06 111.69,163.04 120.44,164.62 129.19,166.94 137.94,170.09 146.69,174.11 155.44,178.94 164.19,184.51 172.94,190.68 181.69,197.27 190.44,204.08 199.19,210.94 207.94,217.64 216.69,224.03 225.44,229.97 234.19,235.35 242.94,240.09 251.69,244.15 260.44,247.52 269.19,250.21 277.94,252.25 286.69,253.69 295.44,254.59 304.19,255.02 312.94,255.06 321.69,254.77 330.44,254.22 339.19,253.49 347.94,252.63 356.69,251.68 365.44,250.70 374.19,249.72 382.94,248.76 391.25,247.91 392.13,247.82 393.88,247.65 396.94,247.35 400.00,247.07 400.61,247.01 401.84,246.90 404.29,246.69 409.19,246.28 417.94,245.61 426.69,245.02 435.44,244.44 444.19,243.78 452.94,242.89 461.69,241.61 470.44,239.76 479.19,237.21 487.94,233.85 496.69,229.67 505.44,224.69 514.19,219.02 522.94,212.80 531.69,206.21 540.44,199.43 549.19,192.66 557.94,186.09 566.69,179.86 575.44,174.11 584.19,168.94 592.94,164.41 601.69,160.55 610.44,157.37 619.19,154.85 627.94,152.97 636.69,151.65 645.44,150.85 654.19,150.50 662.94,150.52 671.69,150.84 680.44,151.40 689.19,152.14 697.94,153.00 706.69,153.92 715.44,154.87 724.19,155.82 732.94,156.73 741.25,157.55 742.13,157.63 743.88,157.80 746.94,158.08 750.00,158.35" fill="none" stroke="#2463a2" stroke-opacity="0.16" stroke-width="1"/><polyline points="50.00,247.07 50.61,247.01 51.84,246.90 54.29,246.69 59.19,246.28 67.94,245.61 76.69,245.02 85.44,244.44 94.19,243.78 102.94,242.89 111.69,241.61 120.44,239.76 129.19,237.21 137.94,233.85 146.69,229.67 155.44,224.69 164.19,219.02 172.94,212.80 181.69,206.21 190.44,199.43 199.19,192.66 207.94,186.09 216.69,179.86 225.44,174.11 234.19,168.94 242.94,164.41 251.69,160.55 260.44,157.37 269.19,154.85 277.94,152.97 286.69,151.65 295.44,150.85 304.19,150.50 312.94,150.52 321.69,150.84 330.44,151.40 339.19,152.14 347.94,153.00 356.69,153.92 365.44,154.87 374.19,155.82 382.94,156.73 391.25,157.55 392.12,157.63 393.88,157.80 396.94,158.08 400.00,158.35 400.61,158.40 401.84,158.50 404.29,158.71 409.19,159.09 417.94,159.71 426.69,160.24 435.44,160.69 444.19,161.06 452.94,161.36 461.69,161.58 470.44,161.75 479.19,161.87 487.94,161.93 496.69,161.96 505.44,161.96 514.19,161.93 522.94,161.88 531.69,161.82 540.44,161.75 549.19,161.67 557.94,161.60 566.69,161.52 575.44,161.44 584.19,161.37 592.94,161.30 601.69,161.23 610.44,161.17 619.19,161.12 627.94,161.07 636.69,161.03 645.44,161.00 654.19,160.96 662.94,160.94 671.69,160.91 680.44,160.89 689.19,160.87 697.94,160.86 706.69,160.85 715.44,160.84 724.19,160.83 732.94,160.82 741.25,160.81 742.12,160.81 743.87,160.81 746.94,160.81 750.00,160.81" fill="none" stroke="#2463a2" stroke-opacity="0.16" stroke-width="1"/><polyline points="50.00,158.35 50.61,158.40 51.84,158.50 54.29,158.71 59.19,159.09 67.94,159.71 76.69,160.24 85.44,160.69 94.19,161.06 102.94,161.36 111.69,161.58 120.44,161.75 129.19,161.87 137.94,161.93 146.69,161.96 155.44,161.96 164.19,161.93 172.94,161.88 181.69,161.82 190.44,161.75 199.19,161.67 207.94,161.60 216.69,161.52 225.44,161.44 234.19,161.37 242.94,161.30 251.69,161.23 260.44,161.17 269.19,161.12 277.94,161.07 286.69,161.03 295.44,161.00 304.19,160.96 312.94,160.94 321.69,160.91 330.44,160.89 339.19,160.87 347.94,160.86 356.69,160.85 365.44,160.84 374.19,160.83 382.94,160.82 391.25,160.81 392.12,160.81 393.88,160.81 396.94,160.81 400.00,160.81 400.61,160.81 401.84,160.81 404.29,160.81 409.19,160.80 417.94,160.80 426.69,160.83 435.44,160.99 444.19,161.47 452.94,162.54 461.69,164.51 470.44,167.70 479.19,172.38 487.94,178.74 496.69,186.83 505.44,196.57 514.19,207.78 522.94,220.16 531.69,233.35 540.44,246.96 549.19,260.61 557.94,273.94 566.69,286.62 575.44,298.40 584.19,309.06 592.94,318.47 601.69,326.54 610.44,333.24 619.19,338.59 627.94,342.66 636.69,345.55 645.44,347.37 654.19,348.27 662.94,348.38 671.69,347.85 680.44,346.82 689.19,345.40 697.94,343.73 706.69,341.90 715.44,339.99 724.19,338.08 732.94,336.24 741.25,334.57 742.13,334.40 743.88,334.07 746.94,333.50 750.00,332.94" fill="none" stroke="#2463a2" stroke-opacity="0.16" stroke-width="1"/><polyline points="50.00,160.81 50.61,160.81 51.84,160.81 54.29,160.81 59.19,160.80 67.94,160.80 76.69,160.83 85.44,160.99 94.19,161.47 102.94,162.54 111.69,164.51 120.44,167.70 129.19,172.38 137.94,178.74 146.69,186.83 155.44,196.57 164.19,207.78 172.94,220.16 181.69,233.35 190.44,246.96 199.19,260.61 207.94,273.94 216.69,286.62 225.44,298.40 234.19,309.06 242.94,318.47 251.69,326.54 260.44,333.24 269.19,338.59 277.94,342.66 286.69,345.55 295.44,347.37 304.19,348.27 312.94,348.38 321.69,347.85 330.44,346.82 339.19,345.40 347.94,343.73 356.69,341.90 365.44,339.99 374.19,338.08 382.94,336.24 391.25,334.57 392.13,334.40 393.88,334.07 396.94,333.50 400.00,332.94 400.61,332.84 401.84,332.62 404.29,332.20 409.19,331.40 417.94,330.11 426.69,328.94 435.44,327.74 444.19,326.23 452.94,324.00 461.69,320.54 470.44,315.36 479.19,308.03 487.94,298.29 496.69,286.05 505.44,271.46 514.19,254.84 522.94,236.66 531.69,217.47 540.44,197.87 549.19,178.40 557.94,159.59 566.69,141.88 575.44,125.64 584.19,111.15 592.94,98.60 601.69,88.05 610.44,79.50 619.19,72.83 627.94,67.88 636.69,64.45 645.44,62.33 654.19,61.31 662.94,61.21 671.69,61.85 680.44,63.07 689.19,64.73 697.94,66.70 706.69,68.87 715.44,71.14 724.19,73.42 732.94,75.64 741.25,77.66 742.13,77.86 743.88,78.27 746.94,78.96 750.00,79.64" fill="none" stroke="#2463a2" stroke-opacity="0.16" stroke-width="1"/><polyline points="50.00,332.94 50.61,332.84 51.84,332.62 54.29,332.20 59.19,331.40 67.94,330.11 76.69,328.94 85.44,327.74 94.19,326.23 102.94,324.00 111.69,320.54 120.44,315.36 129.19,308.03 137.94,298.29 146.69,286.05 155.44,271.46 164.19,254.84 172.94,236.66 181.69,217.47 190.44,197.87 199.19,178.40 207.94,159.59 216.69,141.88 225.44,125.64 234.19,111.15 242.94,98.60 251.69,88.05 260.44,79.50 269.19,72.83 277.94,67.88 286.69,64.45 295.44,62.33 304.19,61.31 312.94,61.21 321.69,61.85 330.44,63.07 339.19,64.73 347.94,66.70 356.69,68.87 365.44,71.14 374.19,73.42 382.94,75.64 391.25,77.66 392.12,77.86 393.88,78.27 396.94,78.96 400.00,79.64 400.61,79.77 401.84,80.03 404.29,80.54 409.19,81.51 417.94,83.08 426.69,84.48 435.44,85.81 444.19,87.31 452.94,89.35 461.69,92.35 470.44,96.80 479.19,103.15 487.94,111.74 496.69,122.76 505.44,136.18 514.19,151.78 522.94,169.18 531.69,187.86 540.44,207.29 549.19,226.90 557.94,246.18 566.69,264.67 575.44,281.98 584.19,297.78 592.94,311.85 601.69,324.01 610.44,334.21 619.19,342.44 627.94,348.76 636.69,353.31 645.44,356.25 654.19,357.79 662.94,358.12 671.69,357.47 680.44,356.03 689.19,354.01 697.94,351.58 706.69,348.88 715.44,346.06 724.19,343.23 732.94,340.47 741.25,337.98 742.12,337.72 743.87,337.22 746.94,336.37 750.00,335.54" fill="none" stroke="#2463a2" stroke-opacity="0.16" stroke-width="1"/><polyline points="50.00,79.64 50.61,79.77 51.84,80.03 54.29,80.54 59.19,81.51 67.94,83.08 76.69,84.48 85.44,85.81 94.19,87.31 102.94,89.35 111.69,92.35 120.44,96.80 129.19,103.15 137.94,111.74 146.69,122.76 155.44,136.18 164.19,151.78 172.94,169.18 181.69,187.86 190.44,207.29 199.19,226.90 207.94,246.18 216.69,264.67 225.44,281.98 234.19,297.78 242.94,311.85 251.69,324.01 260.44,334.21 269.19,342.44 277.94,348.76 286.69,353.31 295.44,356.25 304.19,357.79 312.94,358.12 321.69,357.47 330.44,356.03 339.19,354.01 347.94,351.58 356.69,348.88 365.44,346.06 374.19,343.23 382.94,340.47 391.25,337.98 392.12,337.72 393.88,337.22 396.94,336.37 400.00,335.54 400.61,335.38 401.84,335.06 404.29,334.43 409.19,333.23 417.94,331.29 426.69,329.58 435.44,328.07 444.19,326.64 452.94,325.16 461.69,323.44 470.44,321.30 479.19,318.59 487.94,315.19 496.69,311.04 505.44,306.16 514.19,300.63 522.94,294.56 531.69,288.11 540.44,281.47 549.19,274.81 557.94,268.31 566.69,262.14 575.44,256.42 584.19,251.26 592.94,246.73 601.69,242.86 610.44,239.67 619.19,237.15 627.94,235.27 636.69,233.96 645.44,233.18 654.19,232.86 662.94,232.91 671.69,233.28 680.44,233.89 689.19,234.68 697.94,235.60 706.69,236.58 715.44,237.59 724.19,238.58 732.94,239.55 741.25,240.41 742.13,240.50 743.88,240.67 746.94,240.96 750.00,241.25" fill="none" stroke="#2463a2" stroke-opacity="0.16" stroke-width="1"/><polyline points="50.00,335.54 50.61,335.38 51.84,335.06 54.29,334.43 59.19,333.23 67.94,331.29 76.69,329.58 85.44,328.07 94.19,326.64 102.94,325.16 111.69,323.44 120.44,321.30 129.19,318.59 137.94,315.19 146.69,311.04 155.44,306.16 164.19,300.63 172.94,294.56 181.69,288.11 190.44,281.47 199.19,274.81 207.94,268.31 216.69,262.14 225.44,256.42 234.19,251.26 242.94,246.73 251.69,242.86 260.44,239.67 269.19,237.15 277.94,235.27 286.69,233.96 295.44,233.18 304.19,232.86 312.94,232.91 321.69,233.28 330.44,233.89 339.19,234.68 347.94,235.60 356.69,236.58 365.44,237.59 374.19,238.58 382.94,239.55 391.25,240.41 392.13,240.50 393.88,240.67 396.94,240.96 400.00,241.25 400.61,241.30 401.84,241.41 404.29,241.62 409.19,242.03 417.94,242.69 426.69,243.23 435.44,243.62 444.19,243.75 452.94,243.50 461.69,242.71 470.44,241.23 479.19,238.92 487.94,235.72 496.69,231.61 505.44,226.64 514.19,220.93 522.94,214.62 531.69,207.92 540.44,201.01 549.19,194.10 557.94,187.38 566.69,181.01 575.44,175.11 584.19,169.80 592.94,165.14 601.69,161.16 610.44,157.87 619.19,155.26 627.94,153.28 636.69,151.88 645.44,151.01 654.19,150.59 662.94,150.55 671.69,150.83 680.44,151.35 689.19,152.05 697.94,152.89 706.69,153.80 715.44,154.74 724.19,155.68 732.94,156.59 741.25,157.41 742.13,157.49 743.88,157.66 746.94,157.94 750.00,158.21" fill="none" stroke="#2463a2" stroke-opacity="0.16" stroke-width="1"/><polyline points="50.00,241.25 50.61,241.30 51.84,241.41 54.29,241.62 59.19,242.03 67.94,242.69 76.69,243.23 85.44,243.62 94.19,243.75 102.94,243.50 111.69,242.71 120.44,241.23 129.19,238.92 137.94,235.72 146.69,231.61 155.44,226.64 164.19,220.93 172.94,214.62 181.69,207.92 190.44,201.01 199.19,194.10 207.94,187.38 216.69,181.01 225.44,175.11 234.19,169.80 242.94,165.14 251.69,161.16 260.44,157.87 269.19,155.26 277.94,153.28 286.69,151.88 295.44,151.01 304.19,150.59 312.94,150.55 321.69,150.83 330.44,151.35 339.19,152.05 347.94,152.89 356.69,153.80 365.44,154.74 374.19,155.68 382.94,156.59 391.25,157.41 392.12,157.49 393.88,157.66 396.94,157.94 400.00,158.21 400.61,158.26 401.84,158.36 404.29,158.57 409.19,158.96 417.94,159.58 426.69,160.09 435.44,160.46 444.19,160.59 452.94,160.36 461.69,159.61 470.44,158.21 479.19,156.03 487.94,153.02 496.69,149.16 505.44,144.52 514.19,139.21 522.94,133.38 531.69,127.24 540.44,120.96 549.19,114.74 557.94,108.74 566.69,103.12 575.44,97.99 584.19,93.41 592.94,89.44 601.69,86.10 610.44,83.36 619.19,81.21 627.94,79.60 636.69,78.48 645.44,77.79 654.19,77.48 662.94,77.48 671.69,77.73 680.44,78.18 689.19,78.77 697.94,79.47 706.69,80.22 715.44,81.00 724.19,81.78 732.94,82.54 741.25,83.21 742.12,83.28 743.87,83.42 746.94,83.65 750.00,83.87" fill="none" stroke="#2463a2" stroke-opacity="0.16" stroke-width="1"/><polyline points="50.00,158.21 50.61,158.26 51.84,158.36 54.29,158.57 59.19,158.96 67.94,159.58 76.69,160.09 85.44,160.46 94.19,160.59 102.94,160.36 111.69,159.61 120.44,158.21 129.19,156.03 137.94,153.02 146.69,149.16 155.44,144.52 164.19,139.21 172.94,133.38 181.69,127.24 190.44,120.96 199.19,114.74 207.94,108.74 216.69,103.12 225.44,97.99 234.19,93.41 242.94,89.44 251.69,86.10 260.44,83.36 269.19,81.21 277.94,79.60 286.69,78.48 295.44,77.79 304.19,77.48 312.94,77.48 321.69,77.73 330.44,78.18 339.19,78.77 347.94,79.47 356.69,80.22 365.44,81.00 374.19,81.78 382.94,82.54 391.25,83.21 392.12,83.28 393.88,83.42 396.94,83.65 400.00,83.87 400.61,83.92 401.84,84.00 404.29,84.17 409.19,84.49 417.94,85.01 426.69,85.48 435.44,85.98 444.19,86.65 452.94,87.74 461.69,89.51 470.44,92.27 479.19,96.29 487.94,101.80 496.69,108.90 505.44,117.59 514.19,127.76 522.94,139.16 531.69,151.50 540.44,164.40 549.19,177.50 557.94,190.43 566.69,202.85 575.44,214.49 584.19,225.12 592.94,234.56 601.69,242.71 610.44,249.51 619.19,254.98 627.94,259.15 636.69,262.13 645.44,264.01 654.19,264.95 662.94,265.07 671.69,264.53 680.44,263.47 689.19,262.01 697.94,260.29 706.69,258.41 715.44,256.45 724.19,254.50 732.94,252.61 741.25,250.91 742.13,250.73 743.88,250.39 746.94,249.81 750.00,249.25" fill="none" stroke="#2463a2" stroke-opacity="0.16" stroke-width="1"/><polyline points="50.00,83.87 50.61,83.92 51.84,84.00 54.29,84.17 59.19,84.49 67.94,85.01 76.69,85.48 85.44,85.98 94.19,86.65 102.94,87.74 111.69,89.51 120.44,92.27 129.19,96.29 137.94,101.80 146.69,108.90 155.44,117.59 164.19,127.76 172.94,139.16 181.69,151.50 190.44,164.40 199.19,177.50 207.94,190.43 216.69,202.85 225.44,214.49 234.19,225.12 242.94,234.56 251.69,242.71 260.44,249.51 269.19,254.98 277.94,259.15 286.69,262.13 295.44,264.01 304.19,264.95 312.94,265.07 321.69,264.53 330.44,263.47 339.19,262.01 347.94,260.29 356.69,258.41 365.44,256.45 374.19,254.50 382.94,252.61 391.25,250.91 392.13,250.73 393.88,250.39 396.94,249.81 400.00,249.25 400.61,249.14 401.84,248.92 404.29,248.49 409.19,247.68 417.94,246.37 426.69,245.23 435.44,244.26 444.19,243.47 452.94,242.83 461.69,242.33 470.44,241.95 479.19,241.69 487.94,241.52 496.69,241.44 505.44,241.42 514.19,241.45 522.94,241.53 531.69,241.63 540.44,241.76 549.19,241.90 557.94,242.05 566.69,242.20 575.44,242.35 584.19,242.50 592.94,242.63 601.69,242.76 610.44,242.87 619.19,242.97 627.94,243.07 636.69,243.15 645.44,243.22 654.19,243.28 662.94,243.33 671.69,243.37 680.44,243.41 689.19,243.44 697.94,243.46 706.69,243.48 715.44,243.50 724.19,243.51 732.94,243.52 741.25,243.52 742.13,243.52 743.88,243.52 746.94,243.53 750.00,243.53" fill="none" stroke="#2463a2" stroke-opacity="0.16" stroke-width="1"/><polyline points="50.00,249.25 50.61,249.14 51.84,248.92 54.29,248.49 59.19,247.68 67.94,246.37 76.69,245.23 85.44,244.26 94.19,243.47 102.94,242.83 111.69,242.33 120.44,241.95 129.19,241.69 137.94,241.52 146.69,241.44 155.44,241.42 164.19,241.45 172.94,241.53 181.69,241.63 190.44,241.76 199.19,241.90 207.94,242.05 216.69,242.20 225.44,242.35 234.19,242.50 242.94,242.63 251.69,242.76 260.44,242.87 269.19,242.97 277.94,243.07 286.69,243.15 295.44,243.22 304.19,243.28 312.94,243.33 321.69,243.37 330.44,243.41 339.19,243.44 347.94,243.46 356.69,243.48 365.44,243.50 374.19,243.51 382.94,243.52 391.25,243.52 392.12,243.52 393.88,243.52 396.94,243.53 400.00,243.53 400.61,243.53 401.84,243.53 404.29,243.53 409.19,243.53 417.94,243.53 426.69,243.53 435.44,243.53 444.19,243.53 452.94,243.53 461.69,243.53 470.44,243.54 479.19,243.54 487.94,243.55 496.69,243.55 505.44,243.55 514.19,243.56 522.94,243.56 531.69,243.56 540.44,243.57 549.19,243.57 557.94,243.57 566.69,243.58 575.44,243.58 584.19,243.58 592.94,243.58 601.69,243.59 610.44,243.59 619.19,243.59 627.94,243.59 636.69,243.60 645.44,243.60 654.19,243.60 662.94,243.60 671.69,243.60 680.44,243.61 689.19,243.61 697.94,243.61 706.69,243.61 715.44,243.61 724.19,243.61 732.94,243.62 741.25,243.62 742.12,243.62 743.87,243.62 746.94,243.62 750.00,243.62" fill="none" stroke="#2463a2" stroke-opacity="0.16" stroke-width="1"/><polyline points="50.00,243.53 50.61,243.53 51.84,243.53 54.29,243.53 59.19,243.53 67.94,243.53 76.69,243.53 85.44,243.53 94.19,243.53 102.94,243.53 111.69,243.53 120.44,243.54 129.19,243.54 137.94,243.55 146.69,243.55 155.44,243.55 164.19,243.56 172.94,243.56 181.69,243.56 190.44,243.57 199.19,243.57 207.94,243.57 216.69,243.58 225.44,243.58 234.19,243.58 242.94,243.58 251.69,243.59 260.44,243.59 269.19,243.59 277.94,243.59 286.69,243.60 295.44,243.60 304.19,243.60 312.94,243.60 321.69,243.60 330.44,243.61 339.19,243.61 347.94,243.61 356.69,243.61 365.44,243.61 374.19,243.61 382.94,243.62 391.25,243.62 392.12,243.62 393.88,243.62 396.94,243.62 400.00,243.62 400.61,243.62 401.84,243.62 404.29,243.62 409.19,243.62 417.94,243.62 426.69,243.64 435.44,243.73 444.19,243.99 452.94,244.56 461.69,245.60 470.44,247.27 479.19,249.71 487.94,253.00 496.69,257.15 505.44,262.14 514.19,267.85 522.94,274.14 531.69,280.82 540.44,287.69 549.19,294.56 557.94,301.25 566.69,307.59 575.44,313.45 584.19,318.73 592.94,323.37 601.69,327.32 610.44,330.59 619.19,333.18 627.94,335.14 636.69,336.51 645.44,337.35 654.19,337.75 662.94,337.76 671.69,337.47 680.44,336.93 689.19,336.21 697.94,335.37 706.69,334.45 715.44,333.51 724.19,332.56 732.94,331.65 741.25,330.83 742.13,330.75 743.88,330.58 746.94,330.30 750.00,330.03" fill="none" stroke="#2463a2" stroke-opacity="0.16" stroke-width="1"/><polyline points="50.00,243.62 50.61,243.62 51.84,243.62 54.29,243.62 59.19,243.62 67.94,243.62 76.69,243.64 85.44,243.73 94.19,243.99 102.94,244.56 111.69,245.60 120.44,247.27 129.19,249.71 137.94,253.00 146.69,257.15 155.44,262.14 164.19,267.85 172.94,274.14 181.69,280.82 190.44,287.69 199.19,294.56 207.94,301.25 216.69,307.59 225.44,313.45 234.19,318.73 242.94,323.37 251.69,327.32 260.44,330.59 269.19,333.18 277.94,335.14 286.69,336.51 295.44,337.35 304.19,337.75 312.94,337.76 321.69,337.47 330.44,336.93 339.19,336.21 347.94,335.37 356.69,334.45 365.44,333.51 374.19,332.56 382.94,331.65 391.25,330.83 392.13,330.75 393.88,330.58 396.94,330.30 400.00,330.03 400.61,329.98 401.84,329.87 404.29,329.67 409.19,329.28 417.94,328.65 426.69,328.10 435.44,327.56 444.19,326.94 452.94,326.10 461.69,324.88 470.44,323.10 479.19,320.64 487.94,317.38 496.69,313.29 505.44,308.41 514.19,302.81 522.94,296.64 531.69,290.06 540.44,283.27 549.19,276.45 557.94,269.78 566.69,263.44 575.44,257.55 584.19,252.22 592.94,247.53 601.69,243.51 610.44,240.19 619.19,237.54 627.94,235.55 636.69,234.14 645.44,233.28 654.19,232.88 662.94,232.88 671.69,233.20 680.44,233.77 689.19,234.53 697.94,235.43 706.69,236.39 715.44,237.40 724.19,238.39 732.94,239.36 741.25,240.22 742.13,240.31 743.88,240.48 746.94,240.78 750.00,241.06" fill="none" stroke="#2463a2" stroke-opacity="0.16" stroke-width="1"/><polyline points="50.00,330.03 50.61,329.98 51.84,329.87 54.29,329.67 59.19,329.28 67.94,328.65 76.69,328.10 85.44,327.56 94.19,326.94 102.94,326.10 111.69,324.88 120.44,323.10 129.19,320.64 137.94,317.38 146.69,313.29 155.44,308.41 164.19,302.81 172.94,296.64 181.69,290.06 190.44,283.27 199.19,276.45 207.94,269.78 216.69,263.44 225.44,257.55 234.19,252.22 242.94,247.53 251.69,243.51 260.44,240.19 269.19,237.54 277.94,235.55 286.69,234.14 295.44,233.28 304.19,232.88 312.94,232.88 321.69,233.20 330.44,233.77 339.19,234.53 347.94,235.43 356.69,236.39 365.44,237.40 374.19,238.39 382.94,239.36 391.25,240.22 392.12,240.31 393.88,240.48 396.94,240.78 400.00,241.06 400.61,241.12 401.84,241.23 404.29,241.45 409.19,241.86 417.94,242.52 426.69,243.05 435.44,243.36 444.19,243.24 452.94,242.43 461.69,240.61 470.44,237.46 479.19,232.73 487.94,226.29 496.69,218.10 505.44,208.29 514.19,197.10 522.94,184.86 531.69,171.96 540.44,158.80 549.19,145.78 557.94,133.25 566.69,121.51 575.44,110.81 584.19,101.31 592.94,93.11 601.69,86.23 610.44,80.65 619.19,76.28 627.94,73.02 636.69,70.76 645.44,69.37 654.19,68.72 662.94,68.69 671.69,69.16 680.44,70.03 689.19,71.19 697.94,72.56 706.69,74.06 715.44,75.61 724.19,77.17 732.94,78.68 741.25,80.04 742.12,80.17 743.87,80.45 746.94,80.91 750.00,81.37" fill="none" stroke="#2463a2" stroke-opacity="0.16" stroke-width="1"/><polyline points="50.00,241.06 50.61,241.12 51.84,241.23 54.29,241.45 59.19,241.86 67.94,242.52 76.69,243.05 85.44,243.36 94.19,243.24 102.94,242.43 111.69,240.61 120.44,237.46 129.19,232.73 137.94,226.29 146.69,218.10 155.44,208.29 164.19,197.10 172.94,184.86 181.69,171.96 190.44,158.80 199.19,145.78 207.94,133.25 216.69,121.51 225.44,110.81 234.19,101.31 242.94,93.11 251.69,86.23 260.44,80.65 269.19,76.28 277.94,73.02 286.69,70.76 295.44,69.37 304.19,68.72 312.94,68.69 321.69,69.16 330.44,70.03 339.19,71.19 347.94,72.56 356.69,74.06 365.44,75.61 374.19,77.17 382.94,78.68 391.25,80.04 392.12,80.17 393.88,80.45 396.94,80.91 400.00,81.37 400.61,81.45 401.84,81.63 404.29,81.97 409.19,82.62 417.94,83.66 426.69,84.58 435.44,85.40 444.19,86.21 452.94,87.13 461.69,88.31 470.44,89.89 479.19,92.02 487.94,94.79 496.69,98.28 505.44,102.47 514.19,107.31 522.94,112.71 531.69,118.53 540.44,124.60 549.19,130.75 557.94,136.81 566.69,142.62 575.44,148.04 584.19,152.98 592.94,157.34 601.69,161.08 610.44,164.19 619.19,166.66 627.94,168.52 636.69,169.82 645.44,170.61 654.19,170.96 662.94,170.94 671.69,170.60 680.44,170.03 689.19,169.29 697.94,168.42 706.69,167.48 715.44,166.51 724.19,165.55 732.94,164.63 741.25,163.80 742.13,163.71 743.88,163.55 746.94,163.27 750.00,162.99" fill="none" stroke="#2463a2" stroke-opacity="0.16" stroke-width="1"/><polyline points="50.00,81.37 50.61,81.45 51.84,81.63 54.29,81.97 59.19,82.62 67.94,83.66 76.69,84.58 85.44,85.40 94.19,86.21 102.94,87.13 111.69,88.31 120.44,89.89 129.19,92.02 137.94,94.79 146.69,98.28 155.44,102.47 164.19,107.31 172.94,112.71 181.69,118.53 190.44,124.60 199.19,130.75 207.94,136.81 216.69,142.62 225.44,148.04 234.19,152.98 242.94,157.34 251.69,161.08 260.44,164.19 269.19,166.66 277.94,168.52 286.69,169.82 295.44,170.61 304.19,170.96 312.94,170.94 321.69,170.60 330.44,170.03 339.19,169.29 347.94,168.42 356.69,167.48 365.44,166.51 374.19,165.55 382.94,164.63 391.25,163.80 392.13,163.71 393.88,163.55 396.94,163.27 400.00,162.99 400.61,162.94 401.84,162.83 404.29,162.63 409.19,162.24 417.94,161.60 426.69,161.03 435.44,160.49 444.19,159.87 452.94,159.04 461.69,157.83 470.44,156.09 479.19,153.70 487.94,150.55 496.69,146.64 505.44,142.02 514.19,136.77 522.94,131.05 531.69,125.04 540.44,118.91 549.19,112.85 557.94,107.03 566.69,101.57 575.44,96.59 584.19,92.16 592.94,88.33 601.69,85.10 610.44,82.47 619.19,80.41 627.94,78.88 636.69,77.83 645.44,77.20 654.19,76.93 662.94,76.97 671.69,77.25 680.44,77.73 689.19,78.34 697.94,79.05 706.69,79.82 715.44,80.61 724.19,81.39 732.94,82.15 741.25,82.82 742.13,82.89 743.88,83.03 746.94,83.26 750.00,83.48" fill="none" stroke="#2463a2" stroke-opacity="0.16" stroke-width="1"/><polyline points="50.00,162.99 50.61,162.94 51.84,162.83 54.29,162.63 59.19,162.24 67.94,161.60 76.69,161.03 85.44,160.49 94.19,159.87 102.94,159.04 111.69,157.83 120.44,156.09 129.19,153.70 137.94,150.55 146.69,146.64 155.44,142.02 164.19,136.77 172.94,131.05 181.69,125.04 190.44,118.91 199.19,112.85 207.94,107.03 216.69,101.57 225.44,96.59 234.19,92.16 242.94,88.33 251.69,85.10 260.44,82.47 269.19,80.41 277.94,78.88 286.69,77.83 295.44,77.20 304.19,76.93 312.94,76.97 321.69,77.25 330.44,77.73 339.19,78.34 347.94,79.05 356.69,79.82 365.44,80.61 374.19,81.39 382.94,82.15 391.25,82.82 392.12,82.89 393.88,83.03 396.94,83.26 400.00,83.48 400.61,83.53 401.84,83.61 404.29,83.78 409.19,84.10 417.94,84.62 426.69,85.10 435.44,85.65 444.19,86.51 452.94,88.01 461.69,90.58 470.44,94.69 479.19,100.78 487.94,109.19 496.69,120.08 505.44,133.43 514.19,149.01 522.94,166.43 531.69,185.17 540.44,204.69 549.19,224.41 557.94,243.81 566.69,262.43 575.44,279.86 584.19,295.80 592.94,309.99 601.69,322.28 610.44,332.58 619.19,340.90 627.94,347.30 636.69,351.91 645.44,354.90 654.19,356.49 662.94,356.88 671.69,356.29 680.44,354.92 689.19,352.98 697.94,350.62 706.69,348.00 715.44,345.26 724.19,342.49 732.94,339.78 741.25,337.33 742.12,337.08 743.87,336.59 746.94,335.74 750.00,334.92" fill="none" stroke="#2463a2" stroke-opacity="0.16" stroke-width="1"/><polyline points="50.00,83.48 50.61,83.53 51.84,83.61 54.29,83.78 59.19,84.10 67.94,84.62 76.69,85.10 85.44,85.65 94.19,86.51 102.94,88.01 111.69,90.58 120.44,94.69 129.19,100.78 137.94,109.19 146.69,120.08 155.44,133.43 164.19,149.01 172.94,166.43 181.69,185.17 190.44,204.69 199.19,224.41 207.94,243.81 216.69,262.43 225.44,279.86 234.19,295.80 242.94,309.99 251.69,322.28 260.44,332.58 269.19,340.90 277.94,347.30 286.69,351.91 295.44,354.90 304.19,356.49 312.94,356.88 321.69,356.29 330.44,354.92 339.19,352.98 347.94,350.62 356.69,348.00 365.44,345.26 374.19,342.49 382.94,339.78 391.25,337.33 392.12,337.08 393.88,336.59 396.94,335.74 400.00,334.92 400.61,334.76 401.84,334.44 404.29,333.82 409.19,332.63 417.94,330.69 426.69,329.01 435.44,327.58 444.19,326.39 452.94,325.42 461.69,324.67 470.44,324.11 479.19,323.72 487.94,323.47 496.69,323.34 505.44,323.31 514.19,323.35 522.94,323.46 531.69,323.62 540.44,323.82 549.19,324.04 557.94,324.27 566.69,324.51 575.44,324.74 584.19,324.97 592.94,325.19 601.69,325.39 610.44,325.57 619.19,325.73 627.94,325.88 636.69,326.01 645.44,326.12 654.19,326.23 662.94,326.32 671.69,326.39 680.44,326.46 689.19,326.52 697.94,326.57 706.69,326.61 715.44,326.64 724.19,326.67 732.94,326.69 741.25,326.70 742.13,326.71 743.88,326.71 746.94,326.71 750.00,326.72" fill="none" stroke="#2463a2" stroke-opacity="0.16" stroke-width="1"/><polyline points="50.00,334.92 50.61,334.76 51.84,334.44 54.29,333.82 59.19,332.63 67.94,330.69 76.69,329.01 85.44,327.58 94.19,326.39 102.94,325.42 111.69,324.67 120.44,324.11 129.19,323.72 137.94,323.47 146.69,323.34 155.44,323.31 164.19,323.35 172.94,323.46 181.69,323.62 190.44,323.82 199.19,324.04 207.94,324.27 216.69,324.51 225.44,324.74 234.19,324.97 242.94,325.19 251.69,325.39 260.44,325.57 269.19,325.73 277.94,325.88 286.69,326.01 295.44,326.12 304.19,326.23 312.94,326.32 321.69,326.39 330.44,326.46 339.19,326.52 347.94,326.57 356.69,326.61 365.44,326.64 374.19,326.67 382.94,326.69 391.25,326.70 392.13,326.71 393.88,326.71 396.94,326.71 400.00,326.72 400.61,326.72 401.84,326.72 404.29,326.72 409.19,326.72 417.94,326.73 426.69,326.68 435.44,326.43 444.19,325.70 452.94,324.09 461.69,321.11 470.44,316.28 479.19,309.21 487.94,299.62 496.69,287.47 505.44,272.92 514.19,256.29 522.94,238.07 531.69,218.83 540.44,199.15 549.19,179.60 557.94,160.71 566.69,142.92 575.44,126.60 584.19,112.04 592.94,99.42 601.69,88.81 610.44,80.19 619.19,73.46 627.94,68.43 636.69,64.92 645.44,62.70 654.19,61.58 662.94,61.38 671.69,61.91 680.44,63.04 689.19,64.62 697.94,66.51 706.69,68.62 715.44,70.83 724.19,73.06 732.94,75.25 741.25,77.23 742.13,77.43 743.88,77.83 746.94,78.52 750.00,79.18" fill="none" stroke="#2463a2" stroke-opacity="0.16" stroke-width="1"/><polyline points="50.00,326.72 50.61,326.72 51.84,326.72 54.29,326.72 59.19,326.72 67.94,326.73 76.69,326.68 85.44,326.43 94.19,325.70 102.94,324.09 111.69,321.11 120.44,316.28 129.19,309.21 137.94,299.62 146.69,287.47 155.44,272.92 164.19,256.29 172.94,238.07 181.69,218.83 190.44,199.15 199.19,179.60 207.94,160.71 216.69,142.92 225.44,126.60 234.19,112.04 242.94,99.42 251.69,88.81 260.44,80.19 269.19,73.46 277.94,68.43 286.69,64.92 295.44,62.70 304.19,61.58 312.94,61.38 321.69,61.91 330.44,63.04 339.19,64.62 347.94,66.51 356.69,68.62 365.44,70.83 374.19,73.06 382.94,75.25 391.25,77.23 392.12,77.43 393.88,77.83 396.94,78.52 400.00,79.18 400.61,79.31 401.84,79.56 404.29,80.07 409.19,81.03 417.94,82.59 426.69,83.98 435.44,85.26 444.19,86.59 452.94,88.21 461.69,90.41 470.44,93.49 479.19,97.76 487.94,103.42 496.69,110.62 505.44,119.35 514.19,129.50 522.94,140.86 531.69,153.10 540.44,165.89 549.19,178.86 557.94,191.64 566.69,203.92 575.44,215.40 584.19,225.88 592.94,235.17 601.69,243.18 610.44,249.86 619.19,255.21 627.94,259.28 636.69,262.16 645.44,263.97 654.19,264.84 662.94,264.91 671.69,264.33 680.44,263.23 689.19,261.75 697.94,260.01 706.69,258.11 715.44,256.14 724.19,254.17 732.94,252.27 741.25,250.55 742.12,250.38 743.87,250.04 746.94,249.45 750.00,248.88" fill="none" stroke="#2463a2" stroke-opacity="0.16" stroke-width="1"/><polyline points="50.00,79.18 50.61,79.31 51.84,79.56 54.29,80.07 59.19,81.03 67.94,82.59 76.69,83.98 85.44,85.26 94.19,86.59 102.94,88.21 111.69,90.41 120.44,93.49 129.19,97.76 137.94,103.42 146.69,110.62 155.44,119.35 164.19,129.50 172.94,140.86 181.69,153.10 190.44,165.89 199.19,178.86 207.94,191.64 216.69,203.92 225.44,215.40 234.19,225.88 242.94,235.17 251.69,243.18 260.44,249.86 269.19,255.21 277.94,259.28 286.69,262.16 295.44,263.97 304.19,264.84 312.94,264.91 321.69,264.33 330.44,263.23 339.19,261.75 347.94,260.01 356.69,258.11 365.44,256.14 374.19,254.17 382.94,252.27 391.25,250.55 392.12,250.38 393.88,250.04 396.94,249.45 400.00,248.88 400.61,248.77 401.84,248.55 404.29,248.12 409.19,247.30 417.94,245.98 426.69,244.85 435.44,243.97 444.19,243.43 452.94,243.35 461.69,243.88 470.44,245.18 479.19,247.35 487.94,250.46 496.69,254.53 505.44,259.49 514.19,265.22 522.94,271.57 531.69,278.35 540.44,285.33 549.19,292.33 557.94,299.16 566.69,305.63 575.44,311.63 584.19,317.04 592.94,321.80 601.69,325.86 610.44,329.23 619.19,331.91 627.94,333.94 636.69,335.38 645.44,336.29 654.19,336.73 662.94,336.78 671.69,336.50 680.44,335.98 689.19,335.27 697.94,334.43 706.69,333.52 715.44,332.59 724.19,331.66 732.94,330.77 741.25,329.98 742.13,329.90 743.88,329.74 746.94,329.47 750.00,329.20" fill="none" stroke="#2463a2" stroke-opacity="0.16" stroke-width="1"/><polyline points="50.00,248.88 50.61,248.77 51.84,248.55 54.29,248.12 59.19,247.30 67.94,245.98 76.69,244.85 85.44,243.97 94.19,243.43 102.94,243.35 111.69,243.88 120.44,245.18 129.19,247.35 137.94,250.46 146.69,254.53 155.44,259.49 164.19,265.22 172.94,271.57 181.69,278.35 190.44,285.33 199.19,292.33 207.94,299.16 216.69,305.63 225.44,311.63 234.19,317.04 242.94,321.80 251.69,325.86 260.44,329.23 269.19,331.91 277.94,333.94 286.69,335.38 295.44,336.29 304.19,336.73 312.94,336.78 321.69,336.50 330.44,335.98 339.19,335.27 347.94,334.43 356.69,333.52 365.44,332.59 374.19,331.66 382.94,330.77 391.25,329.98 392.13,329.90 393.88,329.74 396.94,329.47 400.00,329.20 400.61,329.15 401.84,329.05 404.29,328.86 409.19,328.48 417.94,327.88 426.69,327.37 435.44,326.93 444.19,326.58 452.94,326.29 461.69,326.07 470.44,325.90 479.19,325.79 487.94,325.72 496.69,325.70 505.44,325.70 514.19,325.72 522.94,325.77 531.69,325.83 540.44,325.90 549.19,325.98 557.94,326.06 566.69,326.14 575.44,326.22 584.19,326.30 592.94,326.37 601.69,326.44 610.44,326.50 619.19,326.56 627.94,326.61 636.69,326.66 645.44,326.70 654.19,326.74 662.94,326.77 671.69,326.80 680.44,326.83 689.19,326.85 697.94,326.87 706.69,326.88 715.44,326.90 724.19,326.91 732.94,326.92 741.25,326.93 742.13,326.94 743.88,326.94 746.94,326.94 750.00,326.94" fill="none" stroke="#2463a2" stroke-opacity="0.16" stroke-width="1"/><polyline points="50.00,329.20 50.61,329.15 51.84,329.05 54.29,328.86 59.19,328.48 67.94,327.88 76.69,327.37 85.44,326.93 94.19,326.58 102.94,326.29 111.69,326.07 120.44,325.90 129.19,325.79 137.94,325.72 146.69,325.70 155.44,325.70 164.19,325.72 172.94,325.77 181.69,325.83 190.44,325.90 199.19,325.98 207.94,326.06 216.69,326.14 225.44,326.22 234.19,326.30 242.94,326.37 251.69,326.44 260.44,326.50 269.19,326.56 277.94,326.61 286.69,326.66 295.44,326.70 304.19,326.74 312.94,326.77 321.69,326.80 330.44,326.83 339.19,326.85 347.94,326.87 356.69,326.88 365.44,326.90 374.19,326.91 382.94,326.92 391.25,326.93 392.12,326.94 393.88,326.94 396.94,326.94 400.00,326.94 400.61,326.94 401.84,326.94 404.29,326.95 409.19,326.95 417.94,326.96 426.69,326.93 435.44,326.77 444.19,326.29 452.94,325.21 461.69,323.23 470.44,320.02 479.19,315.31 487.94,308.93 496.69,300.80 505.44,291.03 514.19,279.79 522.94,267.40 531.69,254.20 540.44,240.59 549.19,226.96 557.94,213.66 566.69,201.01 575.44,189.29 584.19,178.68 592.94,169.35 601.69,161.36 610.44,154.74 619.19,149.46 627.94,145.45 636.69,142.62 645.44,140.84 654.19,139.97 662.94,139.87 671.69,140.40 680.44,141.42 689.19,142.81 697.94,144.45 706.69,146.24 715.44,148.11 724.19,149.97 732.94,151.77 741.25,153.40 742.12,153.56 743.87,153.89 746.94,154.45 750.00,154.99" fill="none" stroke="#2463a2" stroke-opacity="0.16" stroke-width="1"/><polyline points="50.00,326.94 50.61,326.94 51.84,326.94 54.29,326.95 59.19,326.95 67.94,326.96 76.69,326.93 85.44,326.77 94.19,326.29 102.94,325.21 111.69,323.23 120.44,320.02 129.19,315.31 137.94,308.93 146.69,300.80 155.44,291.03 164.19,279.79 172.94,267.40 181.69,254.20 190.44,240.59 199.19,226.96 207.94,213.66 216.69,201.01 225.44,189.29 234.19,178.68 242.94,169.35 251.69,161.36 260.44,154.74 269.19,149.46 277.94,145.45 286.69,142.62 295.44,140.84 304.19,139.97 312.94,139.87 321.69,140.40 330.44,141.42 339.19,142.81 347.94,144.45 356.69,146.24 365.44,148.11 374.19,149.97 382.94,151.77 391.25,153.40 392.12,153.56 393.88,153.89 396.94,154.45 400.00,154.99 400.61,155.09 401.84,155.30 404.29,155.71 409.19,156.48 417.94,157.74 426.69,158.87 435.44,159.96 444.19,161.22 452.94,162.91 461.69,165.37 470.44,168.93 479.19,173.87 487.94,180.39 496.69,188.55 505.44,198.30 514.19,209.46 522.94,221.75 531.69,234.83 540.44,248.31 549.19,261.83 557.94,275.01 566.69,287.55 575.44,299.19 584.19,309.71 592.94,318.97 601.69,326.90 610.44,333.46 619.19,338.68 627.94,342.63 636.69,345.41 645.44,347.14 654.19,347.95 662.94,347.99 671.69,347.40 680.44,346.32 689.19,344.88 697.94,343.18 706.69,341.33 715.44,339.42 724.19,337.51 732.94,335.67 741.25,334.02 742.13,333.85 743.88,333.52 746.94,332.96 750.00,332.42" fill="none" stroke="#2463a2" stroke-opacity="0.16" stroke-width="1"/><polyline points="50.00,154.99 50.61,155.09 51.84,155.30 54.29,155.71 59.19,156.48 67.94,157.74 76.69,158.87 85.44,159.96 94.19,161.22 102.94,162.91 111.69,165.37 120.44,168.93 129.19,173.87 137.94,180.39 146.69,188.55 155.44,198.30 164.19,209.46 172.94,221.75 181.69,234.83 190.44,248.31 199.19,261.83 207.94,275.01 216.69,287.55 225.44,299.19 234.19,309.71 242.94,318.97 251.69,326.90 260.44,333.46 269.19,338.68 277.94,342.63 286.69,345.41 295.44,347.14 304.19,347.95 312.94,347.99 321.69,347.40 330.44,346.32 339.19,344.88 347.94,343.18 356.69,341.33 365.44,339.42 374.19,337.51 382.94,335.67 391.25,334.02 392.13,333.85 393.88,333.52 396.94,332.96 400.00,332.42 400.61,332.31 401.84,332.10 404.29,331.69 409.19,330.91 417.94,329.65 426.69,328.54 435.44,327.46 444.19,326.22 452.94,324.54 461.69,322.09 470.44,318.53 479.19,313.58 487.94,307.03 496.69,298.82 505.44,289.03 514.19,277.82 522.94,265.49 531.69,252.39 540.44,238.90 549.19,225.39 557.94,212.23 566.69,199.72 575.44,188.13 584.19,177.67 592.94,168.46 601.69,160.58 610.44,154.07 619.19,148.89 627.94,144.97 636.69,142.22 645.44,140.51 654.19,139.70 662.94,139.65 671.69,140.23 680.44,141.29 689.19,142.71 697.94,144.38 706.69,146.21 715.44,148.10 724.19,149.98 732.94,151.79 741.25,153.42 742.13,153.58 743.88,153.90 746.94,154.46 750.00,154.99" fill="none" stroke="#2463a2" stroke-opacity="0.16" stroke-width="1"/><polyline points="50.00,332.42 50.61,332.31 51.84,332.10 54.29,331.69 59.19,330.91 67.94,329.65 76.69,328.54 85.44,327.46 94.19,326.22 102.94,324.54 111.69,322.09 120.44,318.53 129.19,313.58 137.94,307.03 146.69,298.82 155.44,289.03 164.19,277.82 172.94,265.49 181.69,252.39 190.44,238.90 199.19,225.39 207.94,212.23 216.69,199.72 225.44,188.13 234.19,177.67 242.94,168.46 251.69,160.58 260.44,154.07 269.19,148.89 277.94,144.97 286.69,142.22 295.44,140.51 304.19,139.70 312.94,139.65 321.69,140.23 330.44,141.29 339.19,142.71 347.94,144.38 356.69,146.21 365.44,148.10 374.19,149.98 382.94,151.79 391.25,153.42 392.12,153.58 393.88,153.90 396.94,154.46 400.00,154.99 400.61,155.10 401.84,155.30 404.29,155.71 409.19,156.47 417.94,157.71 426.69,158.79 435.44,159.77 444.19,160.76 452.94,161.89 461.69,163.35 470.44,165.29 479.19,167.88 487.94,171.20 496.69,175.31 505.44,180.18 514.19,185.74 522.94,191.86 531.69,198.36 540.44,205.07 549.19,211.81 557.94,218.39 566.69,224.64 575.44,230.45 584.19,235.70 592.94,240.31 601.69,244.26 610.44,247.52 619.19,250.10 627.94,252.05 636.69,253.40 645.44,254.23 654.19,254.60 662.94,254.57 671.69,254.23 680.44,253.64 689.19,252.87 697.94,251.97 706.69,251.00 715.44,250.00 724.19,249.01 732.94,248.04 741.25,247.18 742.12,247.09 743.87,246.92 746.94,246.63 750.00,246.34" fill="none" stroke="#2463a2" stroke-opacity="0.16" stroke-width="1"/><polyline points="50.00,154.99 50.61,155.10 51.84,155.30 54.29,155.71 59.19,156.47 67.94,157.71 76.69,158.79 85.44,159.77 94.19,160.76 102.94,161.89 111.69,163.35 120.44,165.29 129.19,167.88 137.94,171.20 146.69,175.31 155.44,180.18 164.19,185.74 172.94,191.86 181.69,198.36 190.44,205.07 199.19,211.81 207.94,218.39 216.69,224.64 225.44,230.45 234.19,235.70 242.94,240.31 251.69,244.26 260.44,247.52 269.19,250.10 277.94,252.05 286.69,253.40 295.44,254.23 304.19,254.60 312.94,254.57 321.69,254.23 330.44,253.64 339.19,252.87 347.94,251.97 356.69,251.00 365.44,250.00 374.19,249.01 382.94,248.04 391.25,247.18 392.12,247.09 393.88,246.92 396.94,246.63 400.00,246.34 400.61,246.29 401.84,246.18 404.29,245.96 409.19,245.55 417.94,244.89 426.69,244.28 435.44,243.61 444.19,242.70 452.94,241.25 461.69,238.94 470.44,235.43 479.19,230.47 487.94,223.88 496.69,215.63 505.44,205.83 514.19,194.70 522.94,182.57 531.69,169.80 540.44,156.79 549.19,143.94 557.94,131.58 566.69,120.02 575.44,109.50 584.19,100.17 592.94,92.13 601.69,85.39 610.44,79.94 619.19,75.69 627.94,72.54 636.69,70.37 645.44,69.05 654.19,68.46 662.94,68.47 671.69,68.98 680.44,69.87 689.19,71.05 697.94,72.43 706.69,73.93 715.44,75.48 724.19,77.03 732.94,78.53 741.25,79.88 742.13,80.01 743.88,80.28 746.94,80.75 750.00,81.19" fill="none" stroke="#2463a2" stroke-opacity="0.16" stroke-width="1"/><polyline points="50.00,246.34 50.61,246.29 51.84,246.18 54.29,245.96 59.19,245.55 67.94,244.89 76.69,244.28 85.44,243.61 94.19,242.70 102.94,241.25 111.69,238.94 120.44,235.43 129.19,230.47 137.94,223.88 146.69,215.63 155.44,205.83 164.19,194.70 172.94,182.57 181.69,169.80 190.44,156.79 199.19,143.94 207.94,131.58 216.69,120.02 225.44,109.50 234.19,100.17 242.94,92.13 251.69,85.39 260.44,79.94 269.19,75.69 277.94,72.54 286.69,70.37 295.44,69.05 304.19,68.46 312.94,68.47 321.69,68.98 330.44,69.87 339.19,71.05 347.94,72.43 356.69,73.93 365.44,75.48 374.19,77.03 382.94,78.53 391.25,79.88 392.13,80.01 393.88,80.28 396.94,80.75 400.00,81.19 400.61,81.28 401.84,81.45 404.29,81.79 409.19,82.44 417.94,83.47 426.69,84.37 435.44,85.13 444.19,85.76 452.94,86.26 461.69,86.66 470.44,86.95 479.19,87.15 487.94,87.27 496.69,87.33 505.44,87.34 514.19,87.31 522.94,87.24 531.69,87.15 540.44,87.05 549.19,86.93 557.94,86.81 566.69,86.69 575.44,86.58 584.19,86.47 592.94,86.36 601.69,86.27 610.44,86.18 619.19,86.11 627.94,86.04 636.69,85.98 645.44,85.93 654.19,85.89 662.94,85.86 671.69,85.83 680.44,85.80 689.19,85.79 697.94,85.77 706.69,85.76 715.44,85.76 724.19,85.75 732.94,85.75 741.25,85.75 742.13,85.75 743.88,85.75 746.94,85.75 750.00,85.75" fill="none" stroke="#2463a2" stroke-opacity="0.16" stroke-width="1"/><polyline points="50.00,81.19 50.61,81.28 51.84,81.45 54.29,81.79 59.19,82.44 67.94,83.47 76.69,84.37 85.44,85.13 94.19,85.76 102.94,86.26 111.69,86.66 120.44,86.95 129.19,87.15 137.94,87.27 146.69,87.33 155.44,87.34 164.19,87.31 172.94,87.24 181.69,87.15 190.44,87.05 199.19,86.93 207.94,86.81 216.69,86.69 225.44,86.58 234.19,86.47 242.94,86.36 251.69,86.27 260.44,86.18 269.19,86.11 277.94,86.04 286.69,85.98 295.44,85.93 304.19,85.89 312.94,85.86 321.69,85.83 330.44,85.80 339.19,85.79 347.94,85.77 356.69,85.76 365.44,85.76 374.19,85.75 382.94,85.75 391.25,85.75 392.12,85.75 393.88,85.75 396.94,85.75 400.00,85.75 400.61,85.75 401.84,85.75 404.29,85.75 409.19,85.75 417.94,85.75 426.69,85.76 435.44,85.82 444.19,86.01 452.94,86.42 461.69,87.19 470.44,88.46 479.19,90.36 487.94,92.98 496.69,96.35 505.44,100.49 514.19,105.31 522.94,110.73 531.69,116.59 540.44,122.72 549.19,128.94 557.94,135.09 566.69,141.00 575.44,146.53 584.19,151.56 592.94,156.03 601.69,159.86 610.44,163.06 619.19,165.61 627.94,167.55 636.69,168.92 645.44,169.77 654.19,170.18 662.94,170.20 671.69,169.90 680.44,169.37 689.19,168.65 697.94,167.80 706.69,166.88 715.44,165.93 724.19,164.98 732.94,164.07 741.25,163.25 742.12,163.16 743.87,163.00 746.94,162.72 750.00,162.45" fill="none" stroke="#2463a2" stroke-opacity="0.16" stroke-width="1"/><polyline points="50.00,85.75 50.61,85.75 51.84,85.75 54.29,85.75 59.19,85.75 67.94,85.75 76.69,85.76 85.44,85.82 94.19,86.01 102.94,86.42 111.69,87.19 120.44,88.46 129.19,90.36 137.94,92.98 146.69,96.35 155.44,100.49 164.19,105.31 172.94,110.73 181.69,116.59 190.44,122.72 199.19,128.94 207.94,135.09 216.69,141.00 225.44,146.53 234.19,151.56 242.94,156.03 251.69,159.86 260.44,163.06 269.19,165.61 277.94,167.55 286.69,168.92 295.44,169.77 304.19,170.18 312.94,170.20 321.69,169.90 330.44,169.37 339.19,168.65 347.94,167.80 356.69,166.88 365.44,165.93 374.19,164.98 382.94,164.07 391.25,163.25 392.12,163.16 393.88,163.00 396.94,162.72 400.00,162.45 400.61,162.39 401.84,162.29 404.29,162.08 409.19,161.69 417.94,161.06 426.69,160.52 435.44,160.06 444.19,159.68 452.94,159.37 461.69,159.14 470.44,158.96 479.19,158.84 487.94,158.77 496.69,158.72 505.44,158.71 514.19,158.73 522.94,158.76 531.69,158.81 540.44,158.86 549.19,158.92 557.94,158.99 566.69,159.05 575.44,159.12 584.19,159.18 592.94,159.24 601.69,159.29 610.44,159.34 619.19,159.38 627.94,159.41 636.69,159.45 645.44,159.47 654.19,159.49 662.94,159.51 671.69,159.53 680.44,159.54 689.19,159.55 697.94,159.55 706.69,159.55 715.44,159.56 724.19,159.56 732.94,159.55 741.25,159.55 742.13,159.55 743.88,159.55 746.94,159.55 750.00,159.55" fill="none" stroke="#2463a2" stroke-opacity="0.16" stroke-width="1"/><polyline points="50.00,162.45 50.61,162.39 51.84,162.29 54.29,162.08 59.19,161.69 67.94,161.06 76.69,160.52 85.44,160.06 94.19,159.68 102.94,159.37 111.69,159.14 120.44,158.96 129.19,158.84 137.94,158.77 146.69,158.72 155.44,158.71 164.19,158.73 172.94,158.76 181.69,158.81 190.44,158.86 199.19,158.92 207.94,158.99 216.69,159.05 225.44,159.12 234.19,159.18 242.94,159.24 251.69,159.29 260.44,159.34 269.19,159.38 277.94,159.41 286.69,159.45 295.44,159.47 304.19,159.49 312.94,159.51 321.69,159.53 330.44,159.54 339.19,159.55 347.94,159.55 356.69,159.55 365.44,159.56 374.19,159.56 382.94,159.55 391.25,159.55 392.13,159.55 393.88,159.55 396.94,159.55 400.00,159.55 400.61,159.55 401.84,159.55 404.29,159.55 409.19,159.55 417.94,159.54 426.69,159.55 435.44,159.63 444.19,159.87 452.94,160.40 461.69,161.37 470.44,162.95 479.19,165.27 487.94,168.42 496.69,172.43 505.44,177.26 514.19,182.82 522.94,188.99 531.69,195.57 540.44,202.38 549.19,209.23 557.94,215.93 566.69,222.32 575.44,228.26 584.19,233.63 592.94,238.38 601.69,242.44 610.44,245.81 619.19,248.49 627.94,250.53 636.69,251.97 645.44,252.87 654.19,253.31 662.94,253.34 671.69,253.05 680.44,252.51 689.19,251.78 697.94,250.91 706.69,249.97 715.44,248.98 724.19,248.00 732.94,247.05 741.25,246.20 742.13,246.11 743.88,245.94 746.94,245.64 750.00,245.36" fill="none" stroke="#2463a2" stroke-opacity="0.16" stroke-width="1"/><polyline points="50.00,159.55 50.61,159.55 51.84,159.55 54.29,159.55 59.19,159.55 67.94,159.54 76.69,159.55 85.44,159.63 94.19,159.87 102.94,160.40 111.69,161.37 120.44,162.95 129.19,165.27 137.94,168.42 146.69,172.43 155.44,177.26 164.19,182.82 172.94,188.99 181.69,195.57 190.44,202.38 199.19,209.23 207.94,215.93 216.69,222.32 225.44,228.26 234.19,233.63 242.94,238.38 251.69,242.44 260.44,245.81 269.19,248.49 277.94,250.53 286.69,251.97 295.44,252.87 304.19,253.31 312.94,253.34 321.69,253.05 330.44,252.51 339.19,251.78 347.94,250.91 356.69,249.97 365.44,248.98 374.19,248.00 382.94,247.05 391.25,246.20 392.12,246.11 393.88,245.94 396.94,245.64 400.00,245.36 400.61,245.30 401.84,245.19 404.29,244.98 409.19,244.57 417.94,243.90 426.69,243.31 435.44,242.73 444.19,242.07 452.94,241.19 461.69,239.90 470.44,238.06 479.19,235.50 487.94,232.15 496.69,227.96 505.44,222.99 514.19,217.32 522.94,211.10 531.69,204.51 540.44,197.74 549.19,190.98 557.94,184.41 566.69,178.19 575.44,172.44 584.19,167.28 592.94,162.75 601.69,158.89 610.44,155.72 619.19,153.21 627.94,151.33 636.69,150.02 645.44,149.22 654.19,148.87 662.94,148.89 671.69,149.21 680.44,149.77 689.19,150.51 697.94,151.36 706.69,152.28 715.44,153.24 724.19,154.18 732.94,155.09 741.25,155.91 742.12,155.99 743.87,156.16 746.94,156.44 750.00,156.70" fill="none" stroke="#2463a2" stroke-opacity="0.16" stroke-width="1"/><polyline points="50.00,245.36 50.61,245.30 51.84,245.19 54.29,244.98 59.19,244.57 67.94,243.90 76.69,243.31 85.44,242.73 94.19,242.07 102.94,241.19 111.69,239.90 120.44,238.06 129.19,235.50 137.94,232.15 146.69,227.96 155.44,222.99 164.19,217.32 172.94,211.10 181.69,204.51 190.44,197.74 199.19,190.98 207.94,184.41 216.69,178.19 225.44,172.44 234.19,167.28 242.94,162.75 251.69,158.89 260.44,155.72 269.19,153.21 277.94,151.33 286.69,150.02 295.44,149.22 304.19,148.87 312.94,148.89 321.69,149.21 330.44,149.77 339.19,150.51 347.94,151.36 356.69,152.28 365.44,153.24 374.19,154.18 382.94,155.09 391.25,155.91 392.12,155.99 393.88,156.16 396.94,156.44 400.00,156.70 400.61,156.76 401.84,156.86 404.29,157.06 409.19,157.45 417.94,158.07 426.69,158.60 435.44,159.05 444.19,159.42 452.94,159.71 461.69,159.94 470.44,160.11 479.19,160.22 487.94,160.29 496.69,160.32 505.44,160.32 514.19,160.29 522.94,160.24 531.69,160.18 540.44,160.11 549.19,160.03 557.94,159.95 566.69,159.87 575.44,159.80 584.19,159.72 592.94,159.66 601.69,159.59 610.44,159.53 619.19,159.48 627.94,159.43 636.69,159.39 645.44,159.36 654.19,159.32 662.94,159.30 671.69,159.27 680.44,159.25 689.19,159.24 697.94,159.22 706.69,159.21 715.44,159.20 724.19,159.19 732.94,159.18 741.25,159.18 742.13,159.18 743.88,159.17 746.94,159.17 750.00,159.17" fill="none" stroke="#2463a2" stroke-opacity="0.16" stroke-width="1"/><polyline points="50.00,156.70 50.61,156.76 51.84,156.86 54.29,157.06 59.19,157.45 67.94,158.07 76.69,158.60 85.44,159.05 94.19,159.42 102.94,159.71 111.69,159.94 120.44,160.11 129.19,160.22 137.94,160.29 146.69,160.32 155.44,160.32 164.19,160.29 172.94,160.24 181.69,160.18 190.44,160.11 199.19,160.03 207.94,159.95 216.69,159.87 225.44,159.80 234.19,159.72 242.94,159.66 251.69,159.59 260.44,159.53 269.19,159.48 277.94,159.43 286.69,159.39 295.44,159.36 304.19,159.32 312.94,159.30 321.69,159.27 330.44,159.25 339.19,159.24 347.94,159.22 356.69,159.21 365.44,159.20 374.19,159.19 382.94,159.18 391.25,159.18 392.13,159.18 393.88,159.17 396.94,159.17 400.00,159.17 400.61,159.17 401.84,159.17 404.29,159.17 409.19,159.17 417.94,159.16 426.69,159.19 435.44,159.35 444.19,159.84 452.94,160.90 461.69,162.87 470.44,166.05 479.19,170.73 487.94,177.08 496.69,185.16 505.44,194.90 514.19,206.10 522.94,218.48 531.69,231.66 540.44,245.28 549.19,258.93 557.94,272.26 566.69,284.95 575.44,296.74 584.19,307.41 592.94,316.83 601.69,324.90 610.44,331.61 619.19,336.97 627.94,341.05 636.69,343.94 645.44,345.77 654.19,346.67 662.94,346.78 671.69,346.25 680.44,345.22 689.19,343.81 697.94,342.13 706.69,340.29 715.44,338.39 724.19,336.48 732.94,334.63 741.25,332.96 742.13,332.79 743.88,332.46 746.94,331.88 750.00,331.33" fill="none" stroke="#2463a2" stroke-opacity="0.16" stroke-width="1"/><polyline points="50.00,159.17 50.61,159.17 51.84,159.17 54.29,159.17 59.19,159.17 67.94,159.16 76.69,159.19 85.44,159.35 94.19,159.84 102.94,160.90 111.69,162.87 120.44,166.05 129.19,170.73 137.94,177.08 146.69,185.16 155.44,194.90 164.19,206.10 172.94,218.48 181.69,231.66 190.44,245.28 199.19,258.93 207.94,272.26 216.69,284.95 225.44,296.74 234.19,307.41 242.94,316.83 251.69,324.90 260.44,331.61 269.19,336.97 277.94,341.05 286.69,343.94 295.44,345.77 304.19,346.67 312.94,346.78 321.69,346.25 330.44,345.22 339.19,343.81 347.94,342.13 356.69,340.29 365.44,338.39 374.19,336.48 382.94,334.63 391.25,332.96 392.12,332.79 393.88,332.46 396.94,331.88 400.00,331.33 400.61,331.22 401.84,331.01 404.29,330.59 409.19,329.79 417.94,328.49 426.69,327.32 435.44,326.12 444.19,324.61 452.94,322.37 461.69,318.91 470.44,313.72 479.19,306.38 487.94,296.63 496.69,284.38 505.44,269.78 514.19,253.16 522.94,234.98 531.69,215.80 540.44,196.20 549.19,176.75 557.94,157.96 566.69,140.28 575.44,124.08 584.19,109.64 592.94,97.13 601.69,86.64 610.44,78.13 619.19,71.51 627.94,66.60 636.69,63.20 645.44,61.10 654.19,60.10 662.94,60.00 671.69,60.63 680.44,61.85 689.19,63.49 697.94,65.45 706.69,67.60 715.44,69.86 724.19,72.12 732.94,74.34 741.25,76.34 742.12,76.54 743.87,76.95 746.94,77.64 750.00,78.31" fill="none" stroke="#2463a2" stroke-opacity="0.16" stroke-width="1"/><polyline points="50.00,331.33 50.61,331.22 51.84,331.01 54.29,330.59 59.19,329.79 67.94,328.49 76.69,327.32 85.44,326.12 94.19,324.61 102.94,322.37 111.69,318.91 120.44,313.72 129.19,306.38 137.94,296.63 146.69,284.38 155.44,269.78 164.19,253.16 172.94,234.98 181.69,215.80 190.44,196.20 199.19,176.75 207.94,157.96 216.69,140.28 225.44,124.08 234.19,109.64 242.94,97.13 251.69,86.64 260.44,78.13 269.19,71.51 277.94,66.60 286.69,63.20 295.44,61.10 304.19,60.10 312.94,60.00 321.69,60.63 330.44,61.85 339.19,63.49 347.94,65.45 356.69,67.60 365.44,69.86 374.19,72.12 382.94,74.34 391.25,76.34 392.12,76.54 393.88,76.95 396.94,77.64 400.00,78.31 400.61,78.44 401.84,78.69 404.29,79.20 409.19,80.17 417.94,81.73 426.69,83.12 435.44,84.44 444.19,85.94 452.94,87.95 461.69,90.94 470.44,95.36 479.19,101.69 487.94,110.25 496.69,121.23 505.44,134.62 514.19,150.19 522.94,167.56 531.69,186.22 540.44,205.64 549.19,225.24 557.94,244.52 566.69,263.02 575.44,280.33 584.19,296.14 592.94,310.22 601.69,322.40 610.44,332.61 619.19,340.84 627.94,347.18 636.69,351.74 645.44,354.69 654.19,356.22 662.94,356.56 671.69,355.91 680.44,354.47 689.19,352.45 697.94,350.01 706.69,347.31 715.44,344.49 724.19,341.65 732.94,338.89 741.25,336.39 742.13,336.14 743.88,335.64 746.94,334.78 750.00,333.95" fill="none" stroke="#2463a2" stroke-opacity="0.16" stroke-width="1"/><polyline points="50.00,78.31 50.61,78.44 51.84,78.69 54.29,79.20 59.19,80.17 67.94,81.73 76.69,83.12 85.44,84.44 94.19,85.94 102.94,87.95 111.69,90.94 120.44,95.36 129.19,101.69 137.94,110.25 146.69,121.23 155.44,134.62 164.19,150.19 172.94,167.56 181.69,186.22 190.44,205.64 199.19,225.24 207.94,244.52 216.69,263.02 225.44,280.33 234.19,296.14 242.94,310.22 251.69,322.40 260.44,332.61 269.19,340.84 277.94,347.18 286.69,351.74 295.44,354.69 304.19,356.22 312.94,356.56 321.69,355.91 330.44,354.47 339.19,352.45 347.94,350.01 356.69,347.31 365.44,344.49 374.19,341.65 382.94,338.89 391.25,336.39 392.13,336.14 393.88,335.64 396.94,334.78 400.00,333.95 400.61,333.79 401.84,333.47 404.29,332.84 409.19,331.64 417.94,329.69 426.69,327.99 435.44,326.47 444.19,325.04 452.94,323.56 461.69,321.83 470.44,319.69 479.19,316.98 487.94,313.57 496.69,309.42 505.44,304.54 514.19,299.00 522.94,292.92 531.69,286.47 540.44,279.82 549.19,273.16 557.94,266.66 566.69,260.49 575.44,254.77 584.19,249.60 592.94,245.07 601.69,241.20 610.44,238.01 619.19,235.49 627.94,233.61 636.69,232.31 645.44,231.53 654.19,231.20 662.94,231.26 671.69,231.63 680.44,232.24 689.19,233.03 697.94,233.94 706.69,234.93 715.44,235.93 724.19,236.93 732.94,237.90 741.25,238.76 742.13,238.85 743.88,239.02 746.94,239.31 750.00,239.60" fill="none" stroke="#2463a2" stroke-opacity="0.16" stroke-width="1"/><polyline points="50.00,333.95 50.61,333.79 51.84,333.47 54.29,332.84 59.19,331.64 67.94,329.69 76.69,327.99 85.44,326.47 94.19,325.04 102.94,323.56 111.69,321.83 120.44,319.69 129.19,316.98 137.94,313.57 146.69,309.42 155.44,304.54 164.19,299.00 172.94,292.92 181.69,286.47 190.44,279.82 199.19,273.16 207.94,266.66 216.69,260.49 225.44,254.77 234.19,249.60 242.94,245.07 251.69,241.20 260.44,238.01 269.19,235.49 277.94,233.61 286.69,232.31 295.44,231.53 304.19,231.20 312.94,231.26 321.69,231.63 330.44,232.24 339.19,233.03 347.94,233.94 356.69,234.93 365.44,235.93 374.19,236.93 382.94,237.90 391.25,238.76 392.12,238.85 393.88,239.02 396.94,239.31 400.00,239.60 400.61,239.65 401.84,239.76 404.29,239.98 409.19,240.38 417.94,241.04 426.69,241.58 435.44,241.97 444.19,242.10 452.94,241.85 461.69,241.06 470.44,239.58 479.19,237.27 487.94,234.07 496.69,229.96 505.44,225.00 514.19,219.28 522.94,212.98 531.69,206.28 540.44,199.37 549.19,192.47 557.94,185.75 566.69,179.39 575.44,173.50 584.19,168.19 592.94,163.54 601.69,159.56 610.44,156.28 619.19,153.67 627.94,151.69 636.69,150.30 645.44,149.42 654.19,149.00 662.94,148.97 671.69,149.25 680.44,149.77 689.19,150.48 697.94,151.31 706.69,152.22 715.44,153.16 724.19,154.10 732.94,155.01 741.25,155.83 742.12,155.91 743.87,156.07 746.94,156.35 750.00,156.62" fill="none" stroke="#2463a2" stroke-opacity="0.16" stroke-width="1"/><polyline points="50.00,239.60 50.61,239.65 51.84,239.76 54.29,239.98 59.19,240.38 67.94,241.04 76.69,241.58 85.44,241.97 94.19,242.10 102.94,241.85 111.69,241.06 120.44,239.58 129.19,237.27 137.94,234.07 146.69,229.96 155.44,225.00 164.19,219.28 172.94,212.98 181.69,206.28 190.44,199.37 199.19,192.47 207.94,185.75 216.69,179.39 225.44,173.50 234.19,168.19 242.94,163.54 251.69,159.56 260.44,156.28 269.19,153.67 277.94,151.69 286.69,150.30 295.44,149.42 304.19,149.00 312.94,148.97 321.69,149.25 330.44,149.77 339.19,150.48 347.94,151.31 356.69,152.22 365.44,153.16 374.19,154.10 382.94,155.01 391.25,155.83 392.12,155.91 393.88,156.07 396.94,156.35 400.00,156.62 400.61,156.68 401.84,156.78 404.29,156.98 409.19,157.37 417.94,157.99 426.69,158.51 435.44,158.87 444.19,159.00 452.94,158.77 461.69,158.02 470.44,156.63 479.19,154.46 487.94,151.45 496.69,147.60 505.44,142.96 514.19,137.66 522.94,131.85 531.69,125.72 540.44,119.46 549.19,113.26 557.94,107.29 566.69,101.69 575.44,96.57 584.19,92.02 592.94,88.07 601.69,84.74 610.44,82.02 619.19,79.88 627.94,78.29 636.69,77.18 645.44,76.49 654.19,76.18 662.94,76.18 671.69,76.43 680.44,76.88 689.19,77.47 697.94,78.16 706.69,78.91 715.44,79.69 724.19,80.47 732.94,81.22 741.25,81.89 742.13,81.96 743.88,82.09 746.94,82.32 750.00,82.55" fill="none" stroke="#2463a2" stroke-opacity="0.16" stroke-width="1"/><polyline points="50.00,156.62 50.61,156.68 51.84,156.78 54.29,156.98 59.19,157.37 67.94,157.99 76.69,158.51 85.44,158.87 94.19,159.00 102.94,158.77 111.69,158.02 120.44,156.63 129.19,154.46 137.94,151.45 146.69,147.60 155.44,142.96 164.19,137.66 172.94,131.85 181.69,125.72 190.44,119.46 199.19,113.26 207.94,107.29 216.69,101.69 225.44,96.57 234.19,92.02 242.94,88.07 251.69,84.74 260.44,82.02 269.19,79.88 277.94,78.29 286.69,77.18 295.44,76.49 304.19,76.18 312.94,76.18 321.69,76.43 330.44,76.88 339.19,77.47 347.94,78.16 356.69,78.91 365.44,79.69 374.19,80.47 382.94,81.22 391.25,81.89 392.13,81.96 393.88,82.09 396.94,82.32 400.00,82.55 400.61,82.59 401.84,82.68 404.29,82.85 409.19,83.17 417.94,83.68 426.69,84.15 435.44,84.64 444.19,85.32 452.94,86.39 461.69,88.15 470.44,90.89 479.19,94.90 487.94,100.37 496.69,107.45 505.44,116.11 514.19,126.25 522.94,137.63 531.69,149.95 540.44,162.83 549.19,175.91 557.94,188.83 566.69,201.24 575.44,212.88 584.19,223.50 592.94,232.94 601.69,241.08 610.44,247.89 619.19,253.36 627.94,257.53 636.69,260.51 645.44,262.39 654.19,263.32 662.94,263.45 671.69,262.91 680.44,261.85 689.19,260.39 697.94,258.67 706.69,256.79 715.44,254.83 724.19,252.88 732.94,250.98 741.25,249.28 742.13,249.11 743.87,248.77 746.94,248.19" fill="none" stroke="#2463a2" stroke-opacity="0.16" stroke-width="1"/><polyline points="50.00,82.55 50.61,82.59 51.84,82.68 54.29,82.85 59.19,83.17 67.94,83.68 76.69,84.15 85.44,84.64 94.19,85.32 102.94,86.39 111.69,88.15 120.44,90.89 129.19,94.90 137.94,100.37 146.69,107.45 155.44,116.11 164.19,126.25 172.94,137.63 181.69,149.95 190.44,162.83 199.19,175.91 207.94,188.83 216.69,201.24 225.44,212.88 234.19,223.50 242.94,232.94 251.69,241.08 260.44,247.89 269.19,253.36 277.94,257.53 286.69,260.51 295.44,262.39 304.19,263.32 312.94,263.45 321.69,262.91 330.44,261.85 339.19,260.39 347.94,258.67 356.69,256.79 365.44,254.83 374.19,252.88 382.94,250.98 391.25,249.28 392.13,249.11 393.87,248.77 396.94,248.19 400.00,247.62 400.61,247.51 401.84,247.30 404.29,246.87 409.19,246.06 417.94,244.74 426.69,243.61 435.44,242.64 444.19,241.85 452.94,241.21 461.69,240.71 470.44,240.34 479.19,240.07 487.94,239.91 496.69,239.82 505.44,239.80 514.19,239.84 522.94,239.91 531.69,240.02 540.44,240.15 549.19,240.29 557.94,240.44 566.69,240.59 575.44,240.74 584.19,240.88 592.94,241.02 601.69,241.14 610.44,241.26 619.19,241.36 627.94,241.45 636.69,241.53 645.44,241.61 654.19,241.67 662.94,241.72 671.69,241.76 680.44,241.80 689.19,241.83 697.94,241.85 706.69,241.87 715.44,241.88 724.19,241.90 732.94,241.90 741.25,241.91 742.13,241.91 743.88,241.91 746.94,241.91 750.00,241.92" fill="none" stroke="#2463a2" stroke-opacity="0.16" stroke-width="1"/><polyline points="50.00,247.62 50.61,247.51 51.84,247.30 54.29,246.87 59.19,246.06 67.94,244.74 76.69,243.61 85.44,242.64 94.19,241.85 102.94,241.21 111.69,240.71 120.44,240.34 129.19,240.07 137.94,239.91 146.69,239.82 155.44,239.80 164.19,239.84 172.94,239.91 181.69,240.02 190.44,240.15 199.19,240.29 207.94,240.44 216.69,240.59 225.44,240.74 234.19,240.88 242.94,241.02 251.69,241.14 260.44,241.26 269.19,241.36 277.94,241.45 286.69,241.53 295.44,241.61 304.19,241.67 312.94,241.72 321.69,241.76 330.44,241.80 339.19,241.83 347.94,241.85 356.69,241.87 365.44,241.88 374.19,241.90 382.94,241.90 391.25,241.91 392.13,241.91 393.88,241.91 396.94,241.91 400.00,241.92 400.61,241.92 401.84,241.92 404.29,241.92 409.19,241.92 417.94,241.92 426.69,241.92 435.44,241.92 444.19,241.92 452.94,241.92 461.69,241.93 470.44,241.93 479.19,241.93 487.94,241.94 496.69,241.94 505.44,241.95 514.19,241.95 522.94,241.95 531.69,241.96 540.44,241.96 549.19,241.96 557.94,241.97 566.69,241.97 575.44,241.97 584.19,241.97 592.94,241.98 601.69,241.98 610.44,241.98 619.19,241.99 627.94,241.99 636.69,241.99 645.44,241.99 654.19,242.00 662.94,242.00 671.69,242.00 680.44,242.00 689.19,242.00 697.94,242.01 706.69,242.01 715.44,242.01 724.19,242.01 732.94,242.01 741.25,242.02 742.13,242.02 743.88,242.02 746.94,242.02" fill="none" stroke="#2463a2" stroke-opacity="0.16" stroke-width="1"/><polyline points="50.00,241.92 50.61,241.92 51.84,241.92 54.29,241.92 59.19,241.92 67.94,241.92 76.69,241.92 85.44,241.92 94.19,241.92 102.94,241.92 111.69,241.93 120.44,241.93 129.19,241.93 137.94,241.94 146.69,241.94 155.44,241.95 164.19,241.95 172.94,241.95 181.69,241.96 190.44,241.96 199.19,241.96 207.94,241.97 216.69,241.97 225.44,241.97 234.19,241.97 242.94,241.98 251.69,241.98 260.44,241.98 269.19,241.99 277.94,241.99 286.69,241.99 295.44,241.99 304.19,242.00 312.94,242.00 321.69,242.00 330.44,242.00 339.19,242.00 347.94,242.01 356.69,242.01 365.44,242.01 374.19,242.01 382.94,242.01 391.25,242.02 392.12,242.02 393.88,242.02 396.94,242.02 400.00,242.02 400.61,242.02 401.84,242.02 404.29,242.02 409.19,242.02 417.94,242.02 426.69,242.04 435.44,242.13 444.19,242.39 452.94,242.96 461.69,244.00 470.44,245.67 479.19,248.11 487.94,251.39 496.69,255.56 505.44,260.55 514.19,266.26 522.94,272.55 531.69,279.23 540.44,286.11 549.19,292.99 557.94,299.68 566.69,306.03 575.44,311.89 584.19,317.18 592.94,321.82 601.69,325.78 610.44,329.05 619.19,331.65 627.94,333.60 636.69,334.98 645.44,335.83 654.19,336.22 662.94,336.24 671.69,335.94 680.44,335.40 689.19,334.68 697.94,333.84 706.69,332.92 715.44,331.97 724.19,331.03 732.94,330.12 741.25,329.30 742.12,329.22 743.87,329.05 746.94,328.77 750.00,328.50" fill="none" stroke="#2463a2" stroke-opacity="0.16" stroke-width="1"/><polyline points="50.00,242.02 50.61,242.02 51.84,242.02 54.29,242.02 59.19,242.02 67.94,242.02 76.69,242.04 85.44,242.13 94.19,242.39 102.94,242.96 111.69,244.00 120.44,245.67 129.19,248.11 137.94,251.39 146.69,255.56 155.44,260.55 164.19,266.26 172.94,272.55 181.69,279.23 190.44,286.11 199.19,292.99 207.94,299.68 216.69,306.03 225.44,311.89 234.19,317.18 242.94,321.82 251.69,325.78 260.44,329.05 269.19,331.65 277.94,333.60 286.69,334.98 295.44,335.83 304.19,336.22 312.94,336.24 321.69,335.94 330.44,335.40 339.19,334.68 347.94,333.84 356.69,332.92 365.44,331.97 374.19,331.03 382.94,330.12 391.25,329.30 392.12,329.22 393.88,329.05 396.94,328.77 400.00,328.50 400.61,328.45 401.84,328.34 404.29,328.14 409.19,327.75 417.94,327.12 426.69,326.56 435.44,326.02 444.19,325.41 452.94,324.57 461.69,323.34 470.44,321.57 479.19,319.09 487.94,315.83 496.69,311.74 505.44,306.85 514.19,301.25 522.94,295.07 531.69,288.49 540.44,281.69 549.19,274.86 557.94,268.20 566.69,261.85 575.44,255.96 584.19,250.63 592.94,245.94 601.69,241.92 610.44,238.60 619.19,235.95 627.94,233.95 636.69,232.55 645.44,231.69 654.19,231.29 662.94,231.29 671.69,231.61 680.44,232.19 689.19,232.95 697.94,233.84 706.69,234.81 715.44,235.81 724.19,236.81 732.94,237.77 741.25,238.64 742.12,238.73 743.87,238.90 746.94,239.20 750.00,239.48" fill="none" stroke="#2463a2" stroke-opacity="0.16" stroke-width="1"/><polyline points="50.00,328.50 50.61,328.45 51.84,328.34 54.29,328.14 59.19,327.75 67.94,327.12 76.69,326.56 85.44,326.02 94.19,325.41 102.94,324.57 111.69,323.34 120.44,321.57 129.19,319.09 137.94,315.83 146.69,311.74 155.44,306.85 164.19,301.25 172.94,295.07 181.69,288.49 190.44,281.69 199.19,274.86 207.94,268.20 216.69,261.85 225.44,255.96 234.19,250.63 242.94,245.94 251.69,241.92 260.44,238.60 269.19,235.95 277.94,233.95 286.69,232.55 295.44,231.69 304.19,231.29 312.94,231.29 321.69,231.61 330.44,232.19 339.19,232.95 347.94,233.84 356.69,234.81 365.44,235.81 374.19,236.81 382.94,237.77 391.25,238.64 392.12,238.73 393.88,238.90 396.94,239.20 400.00,239.48 400.61,239.54 401.84,239.65 404.29,239.86 409.19,240.27 417.94,240.94 426.69,241.47 435.44,241.78 444.19,241.66 452.94,240.85 461.69,239.02 470.44,235.88 479.19,231.15 487.94,224.70 496.69,216.52 505.44,206.71 514.19,195.53 522.94,183.30 531.69,170.41 540.44,157.27 549.19,144.26 557.94,131.76 566.69,120.05 575.44,109.38 584.19,99.92 592.94,91.75 601.69,84.90 610.44,79.35 619.19,75.01 627.94,71.77 636.69,69.53 645.44,68.15 654.19,67.50 662.94,67.47 671.69,67.95 680.44,68.81 689.19,69.97 697.94,71.33 706.69,72.82 715.44,74.37 724.19,75.92 732.94,77.42 741.25,78.77 742.12,78.91 743.87,79.18 746.94,79.64" fill="none" stroke="#2463a2" stroke-opacity="0.16" stroke-width="1"/><polyline points="50.00,239.48 50.61,239.54 51.84,239.65 54.29,239.86 59.19,240.27 67.94,240.94 76.69,241.47 85.44,241.78 94.19,241.66 102.94,240.85 111.69,239.02 120.44,235.88 129.19,231.15 137.94,224.70 146.69,216.52 155.44,206.71 164.19,195.53 172.94,183.30 181.69,170.41 190.44,157.27 199.19,144.26 207.94,131.76 216.69,120.05 225.44,109.38 234.19,99.92 242.94,91.75 251.69,84.90 260.44,79.35 269.19,75.01 277.94,71.77 286.69,69.53 295.44,68.15 304.19,67.50 312.94,67.47 321.69,67.95 330.44,68.81 339.19,69.97 347.94,71.33 356.69,72.82 365.44,74.37 374.19,75.92 382.94,77.42 391.25,78.77 392.12,78.91 393.88,79.18 396.94,79.64 400.00,80.09 400.61,80.18 401.84,80.35 404.29,80.69 409.19,81.34 417.94,82.38 426.69,83.29 435.44,84.10 444.19,84.91 452.94,85.82 461.69,86.99 470.44,88.57 479.19,90.68 487.94,93.45 496.69,96.91 505.44,101.09 514.19,105.91 522.94,111.30 531.69,117.10 540.44,123.15 549.19,129.28 557.94,135.33 566.69,141.13 575.44,146.55 584.19,151.47 592.94,155.83 601.69,159.57 610.44,162.67 619.19,165.14 627.94,167.00 636.69,168.30 645.44,169.09 654.19,169.44 662.94,169.41 671.69,169.08 680.44,168.51 689.19,167.76 697.94,166.90 706.69,165.96 715.44,164.99 724.19,164.03 732.94,163.11 741.69,162.24" fill="none" stroke="#2463a2" stroke-opacity="0.16" stroke-width="1"/>
<text x="400" y="402" text-anchor="middle" font-family="sans-serif">Time, 0 to 2 UI</text>
</svg>
